<?xml version="1.0" encoding="UTF-8"?>
<svg version="1.1" xmlns="http://www.w3.org/2000/svg" width="159" height="130">
<path d="M0 0 C52.47 0 104.94 0 159 0 C159 42.9 159 85.8 159 130 C106.53 130 54.06 130 0 130 C0 87.1 0 44.2 0 0 Z " fill="#FCFCFB" transform="translate(0,0)"/>
<path d="M0 0 C3.625 0.375 3.625 0.375 7 1 C7.33 2.65 7.66 4.3 8 6 C7.01 6 6.02 6 5 6 C4.67 5.34 4.34 4.68 4 4 C3.01 3.67 2.02 3.34 1 3 C1 4.32 1 5.64 1 7 C3.31 7 5.62 7 8 7 C8 7.99 8 8.98 8 10 C5.69 10.33 3.38 10.66 1 11 C1 11.66 1 12.32 1 13 C3.31 13 5.62 13 8 13 C8 14.32 8 15.64 8 17 C5.69 17 3.38 17 1 17 C1 17.66 1 18.32 1 19 C-0.32 19 -1.64 19 -3 19 C-3 19.66 -3 20.32 -3 21 C0.63 21 4.26 21 8 21 C8 24.63 8 28.26 8 32 C7.01 32.33 6.02 32.66 5 33 C5 33.66 5 34.32 5 35 C5.66 35 6.32 35 7 35 C6.96744792 37.05078125 6.93489583 39.1015625 6.90234375 41.15234375 C6.79438816 43.01732141 6.79438816 43.01732141 8 44 C8.04092937 46.33297433 8.04241723 48.66705225 8 51 C7.01 51 6.02 51 5 51 C5 48.69 5 46.38 5 44 C4.34 44 3.68 44 3 44 C3 46.31 3 48.62 3 51 C2.01 51 1.02 51 0 51 C-0.33 46.05 -0.66 41.1 -1 36 C-1.33 36 -1.66 36 -2 36 C-2.33 40.95 -2.66 45.9 -3 51 C-3.99 51 -4.98 51 -6 51 C-6 45.06 -6 39.12 -6 33 C-6.99 33.33 -7.98 33.66 -9 34 C-9 39.61 -9 45.22 -9 51 C-9.99 51 -10.98 51 -12 51 C-12 48.69 -12 46.38 -12 44 C-12.66 44 -13.32 44 -14 44 C-14 46.31 -14 48.62 -14 51 C-14.99 51 -15.98 51 -17 51 C-17 45.06 -17 39.12 -17 33 C-18.32 33 -19.64 33 -21 33 C-21.495 33.99 -21.495 33.99 -22 35 C-21.34 35 -20.68 35 -20 35 C-20 36.32 -20 37.64 -20 39 C-20.66 39 -21.32 39 -22 39 C-22 38.34 -22 37.68 -22 37 C-22.66 37 -23.32 37 -24 37 C-22.24545615 40.18234105 -22.24545615 40.18234105 -20 43 C-19.875 46.5 -19.875 46.5 -20 50 C-21 51 -21 51 -23.4375 51.25 C-24.283125 51.1675 -25.12875 51.085 -26 51 C-26.66 50.01 -27.32 49.02 -28 48 C-28.33 48.99 -28.66 49.98 -29 51 C-29.99 51 -30.98 51 -32 51 C-32 50.01 -32 49.02 -32 48 C-32.99 48 -33.98 48 -35 48 C-35 48.99 -35 49.98 -35 51 C-35.99 51 -36.98 51 -38 51 C-37.34 45.06 -36.68 39.12 -36 33 C-37.32 33.33 -38.64 33.66 -40 34 C-40 39.61 -40 45.22 -40 51 C-40.99 51 -41.98 51 -43 51 C-43.99 48.03 -43.99 48.03 -45 45 C-45.33 46.98 -45.66 48.96 -46 51 C-46.99 51 -47.98 51 -49 51 C-49 45.39 -49 39.78 -49 34 C-52.3 33.67 -55.6 33.34 -59 33 C-59 38.94 -59 44.88 -59 51 C-59.99 51 -60.98 51 -62 51 C-62.99 47.04 -62.99 47.04 -64 43 C-64.33 45.64 -64.66 48.28 -65 51 C-67.31 51 -69.62 51 -72 51 C-72 50.01 -72 49.02 -72 48 C-73.32 48 -74.64 48 -76 48 C-76 48.99 -76 49.98 -76 51 C-76.66 51 -77.32 51 -78 51 C-77.03644647 39.47835991 -77.03644647 39.47835991 -76 34 C-78.97 34 -81.94 34 -85 34 C-84.01 34.66 -83.02 35.32 -82 36 C-81.63671875 38.71484375 -81.63671875 38.71484375 -81.6875 41.9375 C-81.69136719 42.99839844 -81.69523437 44.05929688 -81.69921875 45.15234375 C-82 48 -82 48 -84 51 C-87.625 51.1875 -87.625 51.1875 -91 51 C-91 47.37 -91 43.74 -91 40 C-91.66 40 -92.32 40 -93 40 C-93 43.63 -93 47.26 -93 51 C-94.65 50.67 -96.3 50.34 -98 50 C-98.33 50.33 -98.66 50.66 -99 51 C-100.99958364 51.04080783 -103.00045254 51.04254356 -105 51 C-105 50.34 -105 49.68 -105 49 C-105.99 49.66 -106.98 50.32 -108 51 C-110.63434254 50.67873872 -112.62710097 50.18644952 -115 49 C-115 49.66 -115 50.32 -115 51 C-116.32 50.67 -117.64 50.34 -119 50 C-119 49.34 -119 48.68 -119 48 C-119.99 48 -120.98 48 -122 48 C-122 48.99 -122 49.98 -122 51 C-124.31 51 -126.62 51 -129 51 C-129.33 49.35 -129.66 47.7 -130 46 C-130.495 48.475 -130.495 48.475 -131 51 C-133 51 -135 51 -137 51 C-137 41.1 -137 31.2 -137 21 C-128.42 21 -119.84 21 -111 21 C-111 16.38 -111 11.76 -111 7 C-109.02 7 -107.04 7 -105 7 C-105 11.29 -105 15.58 -105 20 C-103.35 20 -101.7 20 -100 20 C-100 17.69 -100 15.38 -100 13 C-98.02 13 -96.04 13 -94 13 C-94 15.31 -94 17.62 -94 20 C-92.35 20 -90.7 20 -89 20 C-89 15.71 -89 11.42 -89 7 C-73.16 7 -57.32 7 -41 7 C-41 5.35 -41 3.7 -41 2 C-38.69 2 -36.38 2 -34 2 C-34 8.27 -34 14.54 -34 21 C-32.35 21 -30.7 21 -29 21 C-29 18.69 -29 16.38 -29 14 C-27.02 14 -25.04 14 -23 14 C-23 16.31 -23 18.62 -23 21 C-21.35 21 -19.7 21 -18 21 C-18 14.73 -18 8.46 -18 2 C-10.125 2.125 -10.125 2.125 -7.64892578 2.18017578 C-5.76504951 2.19477217 -3.88130688 2.09943482 -2 2 C-1.34 1.34 -0.68 0.68 0 0 Z " fill="#E6F3E7" transform="translate(144,74)"/>
<path d="M0 0 C1.98 0 3.96 0 6 0 C6 3.63 6 7.26 6 11 C17.22 11 28.44 11 40 11 C40 8.69 40 6.38 40 4 C30.43 4 20.86 4 11 4 C11 2.68 11 1.36 11 0 C22.55 0 34.1 0 46 0 C46 3.63 46 7.26 46 11 C47.65 11 49.3 11 51 11 C51 8.69 51 6.38 51 4 C53.31 4 55.62 4 58 4 C58 6.31 58 8.62 58 11 C59.65 11 61.3 11 63 11 C63 8.69 63 6.38 63 4 C64.98 4 66.96 4 69 4 C69 6.31 69 8.62 69 11 C70.65 11 72.3 11 74 11 C74 8.69 74 6.38 74 4 C76.31 4 78.62 4 81 4 C81 6.31 81 8.62 81 11 C82.65 11 84.3 11 86 11 C86 7.37 86 3.74 86 0 C119 0 119 0 120.9375 0.5625 C123.29664922 1.06292559 124.7285156 0.73011998 127 0 C127 2.31 127 4.62 127 7 C126.38125 6.79375 125.7625 6.5875 125.125 6.375 C124.42375 6.25125 123.7225 6.1275 123 6 C122.34 6.66 121.68 7.32 121 8 C118.875 7.625 118.875 7.625 117 7 C116.67 9.31 116.34 11.62 116 14 C117.98 13.67 119.96 13.34 122 13 C122.33 14.32 122.66 15.64 123 17 C124.32 17.33 125.64 17.66 127 18 C127 18.99 127 19.98 127 21 C119.25 21.125 119.25 21.125 117 20 C116.67 20.66 116.34 21.32 116 22 C73.76 22 31.52 22 -12 22 C-12 18.37 -12 14.74 -12 11 C-8.04 11 -4.08 11 0 11 C0 7.37 0 3.74 0 0 Z " fill="#28B150" transform="translate(25,52)"/>
<path d="M0 0 C0.33 0 0.66 0 1 0 C1 2.31 1 4.62 1 7 C1.69480469 7.25652344 2.38960937 7.51304688 3.10546875 7.77734375 C6.34140593 9.1442106 9.28078161 10.78937044 12.3125 12.5625 C13.91544922 13.49255859 13.91544922 13.49255859 15.55078125 14.44140625 C16.76314453 15.21291016 16.76314453 15.21291016 18 16 C18 16.33 18 16.66 18 17 C16.02 17.33 14.04 17.66 12 18 C23.45423364 23.76244516 34.96081815 29.40984323 46.5 35 C48.11332407 35.7824638 49.72660551 36.5650155 51.33984375 37.34765625 C55.22607456 39.23277886 59.11287072 41.11673077 63 43 C63 43.33 63 43.66 63 44 C22.08 44 -18.84 44 -61 44 C-58.08433409 41.81325056 -55.74045315 40.24579426 -52.55444336 38.65576172 C-51.24805153 38.00025833 -51.24805153 38.00025833 -49.91526794 37.33151245 C-48.98287796 36.86891022 -48.05048798 36.40630798 -47.08984375 35.9296875 C-46.12599258 35.44799103 -45.16214142 34.96629456 -44.16908264 34.47000122 C-42.13507078 33.45450348 -40.10008898 32.44094649 -38.06420898 31.42919922 C-34.94348332 29.87797414 -31.82601347 28.32035618 -28.70898438 26.76171875 C-26.73195934 25.77566361 -24.75475196 24.78997399 -22.77734375 23.8046875 C-21.84292953 23.3380368 -20.90851532 22.87138611 -19.94578552 22.39059448 C-19.0780098 21.95989655 -18.21023407 21.52919861 -17.31616211 21.08544922 C-16.55323349 20.70589081 -15.79030487 20.3263324 -15.0042572 19.93527222 C-13 19 -13 19 -10 18 C-12.64 17.67 -15.28 17.34 -18 17 C-6.46153846 7 -6.46153846 7 -1 7 C-0.67 4.69 -0.34 2.38 0 0 Z " fill="#3A4B26" transform="translate(76,6)"/>
<path d="M0 0 C3.625 0.375 3.625 0.375 7 1 C7.495 3.475 7.495 3.475 8 6 C7.01 6 6.02 6 5 6 C4.505 5.01 4.505 5.01 4 4 C3.01 3.67 2.02 3.34 1 3 C1 4.32 1 5.64 1 7 C3.31 7 5.62 7 8 7 C8 7.99 8 8.98 8 10 C5.69 10.33 3.38 10.66 1 11 C1 11.66 1 12.32 1 13 C3.31 13 5.62 13 8 13 C8 14.32 8 15.64 8 17 C5.69 17 3.38 17 1 17 C1 17.66 1 18.32 1 19 C-0.32 19 -1.64 19 -3 19 C-3 19.66 -3 20.32 -3 21 C0.63 21 4.26 21 8 21 C8 24.63 8 28.26 8 32 C6.515 32.495 6.515 32.495 5 33 C5 33.66 5 34.32 5 35 C5.66 35 6.32 35 7 35 C6.96744792 37.05078125 6.93489583 39.1015625 6.90234375 41.15234375 C6.79438816 43.01732141 6.79438816 43.01732141 8 44 C8.04092937 46.33297433 8.04241723 48.66705225 8 51 C7.01 51 6.02 51 5 51 C5 48.69 5 46.38 5 44 C4.34 44 3.68 44 3 44 C3 46.31 3 48.62 3 51 C2.01 51 1.02 51 0 51 C-0.495 43.575 -0.495 43.575 -1 36 C-1.33 36 -1.66 36 -2 36 C-2.33 40.95 -2.66 45.9 -3 51 C-3.99 51 -4.98 51 -6 51 C-6 45.06 -6 39.12 -6 33 C-7.485 33.495 -7.485 33.495 -9 34 C-9 39.61 -9 45.22 -9 51 C-9.99 51 -10.98 51 -12 51 C-12 48.69 -12 46.38 -12 44 C-12.66 44 -13.32 44 -14 44 C-14 46.31 -14 48.62 -14 51 C-14.99 51 -15.98 51 -17 51 C-17 45.06 -17 39.12 -17 33 C-18.32 33 -19.64 33 -21 33 C-21.495 33.99 -21.495 33.99 -22 35 C-21.34 35 -20.68 35 -20 35 C-20 36.32 -20 37.64 -20 39 C-20.66 39 -21.32 39 -22 39 C-22 38.34 -22 37.68 -22 37 C-22.66 37 -23.32 37 -24 37 C-22.24545615 40.18234105 -22.24545615 40.18234105 -20 43 C-19.875 46.5 -19.875 46.5 -20 50 C-21 51 -21 51 -23.4375 51.25 C-24.283125 51.1675 -25.12875 51.085 -26 51 C-26.66 50.01 -27.32 49.02 -28 48 C-28.33 48.99 -28.66 49.98 -29 51 C-29.99 51 -30.98 51 -32 51 C-32 50.01 -32 49.02 -32 48 C-32.99 48 -33.98 48 -35 48 C-35 48.99 -35 49.98 -35 51 C-35.99 51 -36.98 51 -38 51 C-37.34 45.06 -36.68 39.12 -36 33 C-37.98 33.495 -37.98 33.495 -40 34 C-40 39.61 -40 45.22 -40 51 C-40.99 51 -41.98 51 -43 51 C-43.66 49.02 -44.32 47.04 -45 45 C-45.33 46.98 -45.66 48.96 -46 51 C-46.99 51 -47.98 51 -49 51 C-49 45.39 -49 39.78 -49 34 C-55.15599987 33.24428311 -61.21177885 32.81201803 -67.41015625 32.68359375 C-68.68952309 32.6524221 -68.68952309 32.6524221 -69.99473572 32.62062073 C-72.68391911 32.55592801 -75.3731889 32.496619 -78.0625 32.4375 C-79.90039909 32.39423816 -81.73828986 32.35062161 -83.57617188 32.30664062 C-88.05069571 32.20033066 -92.52530527 32.09884438 -97 32 C-97 30.68 -97 29.36 -97 28 C-68.785 27.505 -68.785 27.505 -40 27 C-40 18.75 -40 10.5 -40 2 C-38.02 2 -36.04 2 -34 2 C-34 8.27 -34 14.54 -34 21 C-32.35 21 -30.7 21 -29 21 C-29 18.69 -29 16.38 -29 14 C-27.02 14 -25.04 14 -23 14 C-23 16.31 -23 18.62 -23 21 C-21.35 21 -19.7 21 -18 21 C-18 14.73 -18 8.46 -18 2 C-10.125 2.125 -10.125 2.125 -7.64892578 2.18017578 C-5.76504951 2.19477217 -3.88130688 2.09943482 -2 2 C-1.34 1.34 -0.68 0.68 0 0 Z " fill="#24B14D" transform="translate(144,74)"/>
<path d="M0 0 C1.98 0 3.96 0 6 0 C6 4.29 6 8.58 6 13 C7.65 13 9.3 13 11 13 C11 10.69 11 8.38 11 6 C12.98 6 14.96 6 17 6 C17 8.31 17 10.62 17 13 C18.65 13 20.3 13 22 13 C22 8.71 22 4.42 22 0 C37.51 0 53.02 0 69 0 C69 6.6 69 13.2 69 20 C50.52 20 32.04 20 13 20 C13 21.65 13 23.3 13 25 C10.03 25 7.06 25 4 25 C4 23.35 4 21.7 4 20 C-5.9 20 -15.8 20 -26 20 C-26 18.02 -26 16.04 -26 14 C-17.42 14 -8.84 14 0 14 C0 9.38 0 4.76 0 0 Z " fill="#466216" transform="translate(33,81)"/>
<path d="M0 0 C3.625 0.375 3.625 0.375 7 1 C7.495 3.475 7.495 3.475 8 6 C7.01 6 6.02 6 5 6 C4.505 5.01 4.505 5.01 4 4 C3.01 3.67 2.02 3.34 1 3 C1 4.32 1 5.64 1 7 C3.31 7 5.62 7 8 7 C8 7.99 8 8.98 8 10 C5.69 10.33 3.38 10.66 1 11 C1 11.66 1 12.32 1 13 C3.31 13 5.62 13 8 13 C8 14.32 8 15.64 8 17 C5.69 17 3.38 17 1 17 C1 17.66 1 18.32 1 19 C-0.32 19 -1.64 19 -3 19 C-3 19.66 -3 20.32 -3 21 C0.63 21 4.26 21 8 21 C8 23.31 8 25.62 8 28 C1.48552273 28.02529705 -5.02894193 28.04284444 -11.54345703 28.05493164 C-13.76090976 28.05996909 -15.97835916 28.06679922 -18.19580078 28.07543945 C-21.37793805 28.08753072 -24.56003151 28.0932341 -27.7421875 28.09765625 C-28.73805878 28.10281754 -29.73393005 28.10797882 -30.75997925 28.11329651 C-32.14118454 28.11340981 -32.14118454 28.11340981 -33.55029297 28.11352539 C-34.3630368 28.115746 -35.17578064 28.11796661 -36.01315308 28.12025452 C-38 28 -38 28 -40 27 C-40 18.75 -40 10.5 -40 2 C-38.02 2 -36.04 2 -34 2 C-34 8.27 -34 14.54 -34 21 C-32.35 21 -30.7 21 -29 21 C-29 18.69 -29 16.38 -29 14 C-27.02 14 -25.04 14 -23 14 C-23 16.31 -23 18.62 -23 21 C-21.35 21 -19.7 21 -18 21 C-18 14.73 -18 8.46 -18 2 C-10.125 2.125 -10.125 2.125 -7.64892578 2.18017578 C-5.76504951 2.19477217 -3.88130688 2.09943482 -2 2 C-1.34 1.34 -0.68 0.68 0 0 Z " fill="#4A641B" transform="translate(144,74)"/>
<path d="M0 0 C0.99 0.495 0.99 0.495 2 1 C3.34061543 0.69728039 4.67405895 0.36162029 6 0 C8 0 10 0 12 0 C12 2.31 12 4.62 12 7 C11.38125 6.79375 10.7625 6.5875 10.125 6.375 C9.42375 6.25125 8.7225 6.1275 8 6 C7.34 6.66 6.68 7.32 6 8 C3.875 7.625 3.875 7.625 2 7 C1.67 9.31 1.34 11.62 1 14 C2.98 13.67 4.96 13.34 7 13 C7.33 14.32 7.66 15.64 8 17 C9.32 17.33 10.64 17.66 12 18 C12 18.99 12 19.98 12 21 C4.25 21.125 4.25 21.125 2 20 C1.67 20.66 1.34 21.32 1 22 C-41.24 22 -83.48 22 -127 22 C-127 20.35 -127 18.7 -127 17 C-101.12446986 15.85564703 -75.2653645 15.87778663 -49.3694458 15.93133545 C-43.78341053 15.9417485 -38.1973704 15.94617072 -32.61132812 15.95117188 C-21.7408731 15.96174952 -10.87043898 15.97871069 0 16 C0 10.72 0 5.44 0 0 Z " fill="#B6DAB2" transform="translate(140,52)"/>
<path d="M0 0 C0.33 0 0.66 0 1 0 C1 8.25 1 16.5 1 25 C1.66 25.33 2.32 25.66 3 26 C-16.47 26 -35.94 26 -56 26 C-56 27.32 -56 28.64 -56 30 C-43.46 30 -30.92 30 -18 30 C-18 36.27 -18 42.54 -18 49 C-18.99 49 -19.98 49 -21 49 C-21.66 46.36 -22.32 43.72 -23 41 C-23.33 43.64 -23.66 46.28 -24 49 C-26.31 49 -28.62 49 -31 49 C-31 48.01 -31 47.02 -31 46 C-32.32 46 -33.64 46 -35 46 C-35 46.99 -35 47.98 -35 49 C-35.66 49 -36.32 49 -37 49 C-36.03644647 37.47835991 -36.03644647 37.47835991 -35 32 C-37.97 32 -40.94 32 -44 32 C-43.01 32.66 -42.02 33.32 -41 34 C-40.63671875 36.71484375 -40.63671875 36.71484375 -40.6875 39.9375 C-40.69136719 40.99839844 -40.69523437 42.05929688 -40.69921875 43.15234375 C-41 46 -41 46 -43 49 C-46.625 49.1875 -46.625 49.1875 -50 49 C-50 45.37 -50 41.74 -50 38 C-50.66 38 -51.32 38 -52 38 C-52 41.63 -52 45.26 -52 49 C-53.65 48.67 -55.3 48.34 -57 48 C-57.99 48 -58.98 48 -60 48 C-59.505 47.505 -59.505 47.505 -59 47 C-58.76346477 44.47403741 -58.57826308 41.96892793 -58.4375 39.4375 C-58.39431641 38.72658203 -58.35113281 38.01566406 -58.30664062 37.28320312 C-58.20028223 35.52238088 -58.09961154 33.7612168 -58 32 C-58.66 32 -59.32 32 -60 32 C-60 31.34 -60 30.68 -60 30 C-59.01 30 -58.02 30 -57 30 C-57 28.35 -57 26.7 -57 25 C-38.52 25 -20.04 25 -1 25 C-1 18.4 -1 11.8 -1 5 C-0.67 3.35 -0.34 1.7 0 0 Z " fill="#D0E2CF" transform="translate(103,76)"/>
<path d="M0 0 C12.21 0 24.42 0 37 0 C36.67 0.99 36.34 1.98 36 3 C36.66 3 37.32 3 38 3 C38 4.32 38 5.64 38 7 C37.34 7 36.68 7 36 7 C36 6.34 36 5.68 36 5 C35.34 5 34.68 5 34 5 C35.75454385 8.18234105 35.75454385 8.18234105 38 11 C38.125 14.5 38.125 14.5 38 18 C37 19 37 19 34.5625 19.25 C33.716875 19.1675 32.87125 19.085 32 19 C31.34 18.01 30.68 17.02 30 16 C29.67 16.99 29.34 17.98 29 19 C28.01 19 27.02 19 26 19 C26 18.01 26 17.02 26 16 C25.01 16 24.02 16 23 16 C23 16.99 23 17.98 23 19 C22.01 19 21.02 19 20 19 C20.66 13.06 21.32 7.12 22 1 C20.68 1.33 19.36 1.66 18 2 C18 7.61 18 13.22 18 19 C17.01 19 16.02 19 15 19 C14.34 17.02 13.68 15.04 13 13 C12.67 14.98 12.34 16.96 12 19 C11.01 19 10.02 19 9 19 C9 13.39 9 7.78 9 2 C6.03 1.67 3.06 1.34 0 1 C0 0.67 0 0.34 0 0 Z " fill="#EAEEE9" transform="translate(86,106)"/>
<path d="M0 0 C2.64 0.66 5.28 1.32 8 2 C8 2.33 8 2.66 8 3 C7.05125 3.28875 6.1025 3.5775 5.125 3.875 C1.94788422 4.76825109 1.94788422 4.76825109 0 7 C0 6.34 0 5.68 0 5 C-2.31 5 -4.62 5 -7 5 C-7 13.25 -7 21.5 -7 30 C-7.33 30 -7.66 30 -8 30 C-8 21.75 -8 13.5 -8 5 C-10.31 5 -12.62 5 -15 5 C-15 11.27 -15 17.54 -15 24 C-16.65 24 -18.3 24 -20 24 C-20 21.69 -20 19.38 -20 17 C-21.98 17 -23.96 17 -26 17 C-26 19.31 -26 21.62 -26 24 C-27.65 24 -29.3 24 -31 24 C-31 17.73 -31 11.46 -31 5 C-49.81 4.67 -68.62 4.34 -88 4 C-88 3.67 -88 3.34 -88 3 C-58.96 3 -29.92 3 0 3 C0 2.01 0 1.02 0 0 Z " fill="#EEF5EA" transform="translate(141,71)"/>
<path d="M0 0 C3.625 0.375 3.625 0.375 7 1 C7.495 3.475 7.495 3.475 8 6 C7.01 6 6.02 6 5 6 C4.505 5.01 4.505 5.01 4 4 C3.01 3.67 2.02 3.34 1 3 C1 4.32 1 5.64 1 7 C3.31 7 5.62 7 8 7 C8 7.99 8 8.98 8 10 C5.69 10.33 3.38 10.66 1 11 C1 11.66 1 12.32 1 13 C3.31 13 5.62 13 8 13 C8 14.32 8 15.64 8 17 C5.69 17 3.38 17 1 17 C1 17.66 1 18.32 1 19 C-0.32 19 -1.64 19 -3 19 C-3 19.66 -3 20.32 -3 21 C0.63 21 4.26 21 8 21 C8 23.31 8 25.62 8 28 C-7.18 28 -22.36 28 -38 28 C-38 27.67 -38 27.34 -38 27 C-28.76 27 -19.52 27 -10 27 C-10 18.75 -10 10.5 -10 2 C-7.36 2 -4.72 2 -2 2 C-1.34 1.34 -0.68 0.68 0 0 Z " fill="#ADCAAA" transform="translate(144,74)"/>
<path d="M0 0 C41.58 0 83.16 0 126 0 C126 0.66 126 1.32 126 2 C115.22923964 2.17151924 104.45840782 2.338018 93.6875 2.5 C92.89793034 2.51187725 92.10836067 2.5237545 91.29486465 2.53599167 C68.19580699 2.88199561 45.10219204 3.1731 22 3 C22 4.32 22 5.64 22 7 C31.57 7 41.14 7 51 7 C51 9.31 51 11.62 51 14 C39.78 14 28.56 14 17 14 C17 10.04 17 6.08 17 2 C11.39 2 5.78 2 0 2 C0 1.34 0 0.68 0 0 Z " fill="#F0F5F0" transform="translate(14,49)"/>
<path d="M0 0 C0.9796875 0.00322266 1.959375 0.00644531 2.96875 0.00976562 C3.98453125 0.01814453 5.0003125 0.02652344 6.046875 0.03515625 C7.59375 0.04192383 7.59375 0.04192383 9.171875 0.04882812 C11.71360073 0.06059537 14.25520819 0.07703614 16.796875 0.09765625 C16.466875 0.75765625 16.136875 1.41765625 15.796875 2.09765625 C15.24523871 6.83816435 15.24523871 6.83816435 17.296875 10.84765625 C17.791875 11.26015625 18.286875 11.67265625 18.796875 12.09765625 C18.796875 13.08765625 18.796875 14.07765625 18.796875 15.09765625 C18.136875 15.09765625 17.476875 15.09765625 16.796875 15.09765625 C16.796875 14.43765625 16.796875 13.77765625 16.796875 13.09765625 C15.806875 13.09765625 14.816875 13.09765625 13.796875 13.09765625 C13.466875 14.74765625 13.136875 16.39765625 12.796875 18.09765625 C11.476875 17.76765625 10.156875 17.43765625 8.796875 17.09765625 C8.796875 16.43765625 8.796875 15.77765625 8.796875 15.09765625 C7.806875 15.09765625 6.816875 15.09765625 5.796875 15.09765625 C5.796875 16.08765625 5.796875 17.07765625 5.796875 18.09765625 C3.486875 18.09765625 1.176875 18.09765625 -1.203125 18.09765625 C-1.533125 16.44765625 -1.863125 14.79765625 -2.203125 13.09765625 C-2.533125 14.74765625 -2.863125 16.39765625 -3.203125 18.09765625 C-5.203125 18.09765625 -7.203125 18.09765625 -9.203125 18.09765625 C-9.203125 12.48765625 -9.203125 6.87765625 -9.203125 1.09765625 C-5.80548424 0.24824606 -3.4333923 -0.01996158 0 0 Z " fill="#F4F9F0" transform="translate(16.203125,106.90234375)"/>
<path d="M0 0 C28.71 0 57.42 0 87 0 C87 1.32 87 2.64 87 4 C58.29 4 29.58 4 0 4 C0 2.68 0 1.36 0 0 Z " fill="#60B338" transform="translate(53,70)"/>
<path d="M0 0 C7.92 0 15.84 0 24 0 C23.01 0.495 23.01 0.495 22 1 C22 1.66 22 2.32 22 3 C22.66 3 23.32 3 24 3 C23.96744792 5.05078125 23.93489583 7.1015625 23.90234375 9.15234375 C23.79438816 11.01732141 23.79438816 11.01732141 25 12 C25.04092937 14.33297433 25.04241723 16.66705225 25 19 C24.01 19 23.02 19 22 19 C22 16.69 22 14.38 22 12 C21.34 12 20.68 12 20 12 C20 14.31 20 16.62 20 19 C19.01 19 18.02 19 17 19 C16.67 14.05 16.34 9.1 16 4 C15.67 4 15.34 4 15 4 C14.67 8.95 14.34 13.9 14 19 C13.01 19 12.02 19 11 19 C11 13.06 11 7.12 11 1 C10.01 1.33 9.02 1.66 8 2 C8 7.61 8 13.22 8 19 C7.01 19 6.02 19 5 19 C5 16.69 5 14.38 5 12 C4.34 12 3.68 12 3 12 C3 14.31 3 16.62 3 19 C2.01 19 1.02 19 0 19 C0 12.73 0 6.46 0 0 Z " fill="#F4FCF8" transform="translate(127,106)"/>
<path d="M0 0 C2.8153125 0.061875 2.8153125 0.061875 5.6875 0.125 C5.6875 6.395 5.6875 12.665 5.6875 19.125 C4.6975 19.125 3.7075 19.125 2.6875 19.125 C2.0275 16.485 1.3675 13.845 0.6875 11.125 C0.3575 13.765 0.0275 16.405 -0.3125 19.125 C-2.6225 19.125 -4.9325 19.125 -7.3125 19.125 C-7.3125 18.135 -7.3125 17.145 -7.3125 16.125 C-8.6325 16.125 -9.9525 16.125 -11.3125 16.125 C-11.3125 17.115 -11.3125 18.105 -11.3125 19.125 C-11.9725 19.125 -12.6325 19.125 -13.3125 19.125 C-13.08486913 16.40311593 -12.84446229 13.6836293 -12.58203125 10.96484375 C-12.37972454 8.83329329 -12.21238609 6.69837676 -12.0625 4.5625 C-11.3125 2.125 -11.3125 2.125 -9.16015625 0.98046875 C-5.95847641 0.01864723 -3.33595453 -0.07331768 0 0 Z " fill="#F2F4F1" transform="translate(79.3125,105.875)"/>
<path d="M0 0 C11.22 0 22.44 0 34 0 C34 2.64 34 5.28 34 8 C22.78 8 11.56 8 0 8 C0 5.36 0 2.72 0 0 Z " fill="#F2F4EE" transform="translate(62,87)"/>
<path d="M0 0 C1.98 0 3.96 0 6 0 C6 8.25 6 16.5 6 25 C4.02 25 2.04 25 0 25 C0 16.75 0 8.5 0 0 Z " fill="#435E12" transform="translate(134,76)"/>
<path d="M0 0 C31.35 0 62.7 0 95 0 C95 0.33 95 0.66 95 1 C76.52 1 58.04 1 39 1 C39 2.65 39 4.3 39 6 C36.03 6 33.06 6 30 6 C30 4.35 30 2.7 30 1 C20.1 1 10.2 1 0 1 C0 0.67 0 0.34 0 0 Z " fill="#4D6723" transform="translate(7,100)"/>
<path d="M0 0 C10.89 0 21.78 0 33 0 C33 1.32 33 2.64 33 4 C22.11 4 11.22 4 0 4 C0 2.68 0 1.36 0 0 Z " fill="#62B33B" transform="translate(13,70)"/>
<path d="M0 0 C5.61 0 11.22 0 17 0 C17 2.31 17 4.62 17 7 C11.39 7 5.78 7 0 7 C0 4.69 0 2.38 0 0 Z " fill="#F1F9F4" transform="translate(117,56)"/>
<path d="M0 0 C0.99 0 1.98 0 3 0 C3.66 2.31 4.32 4.62 5 7 C5.33 4.69 5.66 2.38 6 0 C7.32 0 8.64 0 10 0 C10 5.28 10 10.56 10 16 C9.34 16 8.68 16 8 16 C7.67 14.35 7.34 12.7 7 11 C6.67 12.65 6.34 14.3 6 16 C4 16 2 16 0 16 C0 10.72 0 5.44 0 0 Z " fill="#78B65B" transform="translate(7,109)"/>
<path d="M0 0 C9.24 0 18.48 0 28 0 C28 1.32 28 2.64 28 4 C18.76 4 9.52 4 0 4 C0 2.68 0 1.36 0 0 Z " fill="#23B14D" transform="translate(7,102)"/>
<path d="M0 0 C2.31 0 4.62 0 7 0 C6.96744792 2.05078125 6.93489583 4.1015625 6.90234375 6.15234375 C6.79438816 8.01732141 6.79438816 8.01732141 8 9 C8.04092937 11.33297433 8.04241723 13.66705225 8 16 C7.01 16 6.02 16 5 16 C5 13.69 5 11.38 5 9 C4.34 9 3.68 9 3 9 C3 11.31 3 13.62 3 16 C2.01 16 1.02 16 0 16 C0 10.72 0 5.44 0 0 Z " fill="#69745B" transform="translate(144,109)"/>
<path d="M0 0 C0.99 0 1.98 0 3 0 C3.33 0.66 3.66 1.32 4 2 C4.33 1.34 4.66 0.68 5 0 C5.99 0 6.98 0 8 0 C8 5.28 8 10.56 8 16 C7.01 16 6.02 16 5 16 C4.34 14.02 3.68 12.04 3 10 C2.67 11.98 2.34 13.96 2 16 C1.34 16 0.68 16 0 16 C0 10.72 0 5.44 0 0 Z " fill="#59664B" transform="translate(96,109)"/>
<path d="M0 0 C0.99 0 1.98 0 3 0 C3 1.98 3 3.96 3 6 C3.99 6 4.98 6 6 6 C6 4.02 6 2.04 6 0 C6.66 0 7.32 0 8 0 C8 5.28 8 10.56 8 16 C7.01 16 6.02 16 5 16 C5 13.69 5 11.38 5 9 C4.34 9 3.68 9 3 9 C3 11.31 3 13.62 3 16 C2.01 16 1.02 16 0 16 C0 10.72 0 5.44 0 0 Z " fill="#525F43" transform="translate(127,109)"/>
<path d="M0 0 C1.32 0 2.64 0 4 0 C4.33 1.65 4.66 3.3 5 5 C5.33 3.35 5.66 1.7 6 0 C6.66 0 7.32 0 8 0 C8 5.28 8 10.56 8 16 C7.01 16 6.02 16 5 16 C4.34 13.36 3.68 10.72 3 8 C2.67 10.64 2.34 13.28 2 16 C1.34 16 0.68 16 0 16 C0 10.72 0 5.44 0 0 Z " fill="#445132" transform="translate(77,109)"/>
<path d="M0 0 C1.32 0 2.64 0 4 0 C5.38529821 5.45461169 6.2396943 10.36718401 6 16 C5.01 15.67 4.02 15.34 3 15 C3 14.34 3 13.68 3 13 C2.01 13 1.02 13 0 13 C0 13.99 0 14.98 0 16 C-0.66 16 -1.32 16 -2 16 C-1.85890014 13.89551062 -1.71195825 11.7914123 -1.5625 9.6875 C-1.48128906 8.51574219 -1.40007813 7.34398438 -1.31640625 6.13671875 C-1 3 -1 3 0 0 Z " fill="#73B756" transform="translate(22,109)"/>
<path d="M0 0 C0.99 0 1.98 0 3 0 C3.50404808 2.10320063 4.00310508 4.20759791 4.5 6.3125 C4.7784375 7.48425781 5.056875 8.65601562 5.34375 9.86328125 C6 13 6 13 6 16 C5.01 16 4.02 16 3 16 C3 15.01 3 14.02 3 13 C2.01 13 1.02 13 0 13 C0 13.99 0 14.98 0 16 C-0.99 16 -1.98 16 -3 16 C-2.69177379 13.7077546 -2.37829126 11.41621545 -2.0625 9.125 C-1.88847656 7.84882812 -1.71445313 6.57265625 -1.53515625 5.2578125 C-1 2 -1 2 0 0 Z " fill="#414E2F" transform="translate(109,109)"/>
<path d="M0 0 C1.32 0 2.64 0 4 0 C5.19088986 5.38027025 6.2919519 10.45291384 6 16 C5.34 16 4.68 16 4 16 C4 15.01 4 14.02 4 13 C2.68 13 1.36 13 0 13 C0 13.99 0 14.98 0 16 C-0.66 16 -1.32 16 -2 16 C-1.85764543 14.27054347 -1.71095618 12.54144346 -1.5625 10.8125 C-1.48128906 9.84957031 -1.40007812 8.88664062 -1.31640625 7.89453125 C-1.02333849 5.21350398 -0.57296246 2.6337014 0 0 Z " fill="#4C593C" transform="translate(68,109)"/>
<path d="M0 0 C1.67542976 0.28604898 3.34385343 0.61781233 5 1 C5.33 2.32 5.66 3.64 6 5 C5.01 5 4.02 5 3 5 C3 4.34 3 3.68 3 3 C2.34 3 1.68 3 1 3 C2.52206009 5.62901288 3.84365964 7.84365964 6 10 C6.25 12.5 6.25 12.5 6 15 C5.34 15.66 4.68 16.32 4 17 C1.375 16.625 1.375 16.625 -1 16 C-1.33 14.68 -1.66 13.36 -2 12 C-1.01 12 -0.02 12 1 12 C1 12.66 1 13.32 1 14 C1.66 14 2.32 14 3 14 C1.24545615 10.81765895 1.24545615 10.81765895 -1 8 C-1.125 4.5 -1.125 4.5 -1 1 C-0.67 0.67 -0.34 0.34 0 0 Z " fill="#74B854" transform="translate(32,108)"/>
<path d="M0 0 C2.625 0.375 2.625 0.375 5 1 C5 2.32 5 3.64 5 5 C4.34 5 3.68 5 3 5 C3 4.34 3 3.68 3 3 C2.34 3 1.68 3 1 3 C2.75454385 6.18234105 2.75454385 6.18234105 5 9 C5.125 12.5 5.125 12.5 5 16 C4 17 4 17 1.4375 17.0625 C0.633125 17.041875 -0.17125 17.02125 -1 17 C-1.33 15.35 -1.66 13.7 -2 12 C-1.34 12 -0.68 12 0 12 C0 12.66 0 13.32 0 14 C0.99 14 1.98 14 3 14 C1.47793991 11.37098712 0.15634036 9.15634036 -2 7 C-2.25 4.5 -2.25 4.5 -2 2 C-1.34 1.34 -0.68 0.68 0 0 Z " fill="#4E5B3D" transform="translate(119,108)"/>
<path d="M0 0 C3.625 0.375 3.625 0.375 7 1 C7.33 2.65 7.66 4.3 8 6 C7.01 6 6.02 6 5 6 C4.67 5.34 4.34 4.68 4 4 C3.01 3.67 2.02 3.34 1 3 C1 4.32 1 5.64 1 7 C3.31 7 5.62 7 8 7 C8 7.99 8 8.98 8 10 C4.7 10 1.4 10 -2 10 C-2.1953125 3.9453125 -2.1953125 3.9453125 -2 2 C-1.34 1.34 -0.68 0.68 0 0 Z " fill="#486318" transform="translate(144,74)"/>
<path d="M0 0 C2.31 0 4.62 0 7 0 C8 1 8 1 8.1328125 3.65234375 C8.13023438 4.73644531 8.12765625 5.82054688 8.125 6.9375 C8.12757812 8.01902344 8.13015625 9.10054687 8.1328125 10.21484375 C8 13 8 13 7 15 C5.68 14.67 4.36 14.34 3 14 C3.66 14 4.32 14 5 14 C5 10.04 5 6.08 5 2 C4.01 2 3.02 2 2 2 C2 5.96 2 9.92 2 14 C1.67 14 1.34 14 1 14 C0.67 9.38 0.34 4.76 0 0 Z " fill="#6EB54D" transform="translate(54,109)"/>
<path d="M0 0 C3.63 0 7.26 0 11 0 C11 1.98 11 3.96 11 6 C7.37 6 3.74 6 0 6 C0 4.02 0 2.04 0 0 Z " fill="#49631A" transform="translate(141,95)"/>
<path d="M0 0 C1.0209375 0.309375 1.0209375 0.309375 2.0625 0.625 C4.24953385 0.24592718 4.24953385 0.24592718 6.0625 -0.375 C6.0625 1.935 6.0625 4.245 6.0625 6.625 C5.44375 6.41875 4.825 6.2125 4.1875 6 C3.48625 5.87625 2.785 5.7525 2.0625 5.625 C1.4025 6.285 0.7425 6.945 0.0625 7.625 C-2.0625 7.25 -2.0625 7.25 -3.9375 6.625 C-4.625 4.8125 -4.625 4.8125 -4.9375 2.625 C-3.42944343 0.32322945 -2.7937683 -0.54072935 0 0 Z " fill="#677D3F" transform="translate(145.9375,52.375)"/>
<path d="M0 0 C0 1.65 0 3.3 0 5 C-1.65 5 -3.3 5 -5 5 C-5.495 3.02 -5.495 3.02 -6 1 C-16.89 1 -27.78 1 -39 1 C-39 0.67 -39 0.34 -39 0 C-34.69502784 -0.1436774 -30.39001502 -0.28604954 -26.08496094 -0.42724609 C-24.62238416 -0.47539544 -23.1598188 -0.52389282 -21.69726562 -0.57275391 C-19.58726913 -0.64318294 -17.47723388 -0.71233368 -15.3671875 -0.78125 C-14.09987793 -0.82314453 -12.83256836 -0.86503906 -11.52685547 -0.90820312 C-2.29688117 -1.14844058 -2.29688117 -1.14844058 0 0 Z " fill="#A5D099" transform="translate(52,69)"/>
<path d="M0 0 C1.67542976 0.28604898 3.34385343 0.61781233 5 1 C5 1.99 5 2.98 5 4 C6.32 4.33 7.64 4.66 9 5 C9 5.99 9 6.98 9 8 C1.60045489 8.36391205 1.60045489 8.36391205 -1.0625 6.75 C-2 5 -2 5 -1.75 2.875 C-1 1 -1 1 0 0 Z " fill="#516A23" transform="translate(143,65)"/>
<path d="M0 0 C0.99 0 1.98 0 3 0 C2.98839844 0.84304687 2.97679687 1.68609375 2.96484375 2.5546875 C2.95582031 3.65039062 2.94679688 4.74609375 2.9375 5.875 C2.92589844 6.96554688 2.91429687 8.05609375 2.90234375 9.1796875 C2.80255697 11.95177546 2.80255697 11.95177546 4 14 C2.02 14 0.04 14 -2 14 C-2 11.03 -2 8.06 -2 5 C-1.67 5 -1.34 5 -1 5 C-0.67 3.35 -0.34 1.7 0 0 Z " fill="#B7D9A8" transform="translate(56,111)"/>
<path d="M0 0 C0.99 0 1.98 0 3 0 C3 0.66 3 1.32 3 2 C5.31 2 7.62 2 10 2 C10 3.32 10 4.64 10 6 C7.69 6 5.38 6 3 6 C3 6.66 3 7.32 3 8 C2.01 8 1.02 8 0 8 C0 5.36 0 2.72 0 0 Z " fill="#5C7331" transform="translate(142,85)"/>
<path d="M0 0 C0.99 0 1.98 0 3 0 C3 5.61 3 11.22 3 17 C2.01 17 1.02 17 0 17 C0 11.39 0 5.78 0 0 Z " fill="#7EBA61" transform="translate(48,108)"/>
<path d="M0 0 C0.99 0 1.98 0 3 0 C3.05384521 2.29141286 3.09272087 4.58318188 3.125 6.875 C3.14820313 8.15117188 3.17140625 9.42734375 3.1953125 10.7421875 C3 14 3 14 1 16 C0.01 16 -0.98 16 -2 16 C-2 15.01 -2 14.02 -2 13 C-1.34 13 -0.68 13 0 13 C0 8.71 0 4.42 0 0 Z " fill="#7FBE62" transform="translate(42,109)"/>
<path d="M0 0 C1.98 0 3.96 0 6 0 C5.96744792 2.05078125 5.93489583 4.1015625 5.90234375 6.15234375 C5.79438816 8.01732141 5.79438816 8.01732141 7 9 C7.04092937 11.33297433 7.04241723 13.66705225 7 16 C6.01 16 5.02 16 4 16 C2.66742597 6.58997722 2.66742597 6.58997722 4 2 C3.01 2 2.02 2 1 2 C0.67 3.32 0.34 4.64 0 6 C0 4.02 0 2.04 0 0 Z " fill="#525F43" transform="translate(145,109)"/>
<path d="M0 0 C0.99 0 1.98 0 3 0 C3 5.28 3 10.56 3 16 C2.01 16 1.02 16 0 16 C0 10.72 0 5.44 0 0 Z " fill="#515D43" transform="translate(138,109)"/>
<path d="M0 0 C1.32 0 2.64 0 4 0 C4 5.28 4 10.56 4 16 C3.34 16 2.68 16 2 16 C1.67 13.36 1.34 10.72 1 8 C0.67 8 0.34 8 0 8 C0 5.36 0 2.72 0 0 Z " fill="#69B147" transform="translate(13,109)"/>
<path d="M0 0 C2.97 0 5.94 0 9 0 C9 1.65 9 3.3 9 5 C6.03 5 3.06 5 0 5 C0 3.35 0 1.7 0 0 Z " fill="#6F834A" transform="translate(37,101)"/>
<path d="M0 0 C0.99 0 1.98 0 3 0 C3.33 1.65 3.66 3.3 4 5 C3.34 5 2.68 5 2 5 C2 8.63 2 12.26 2 16 C1.34 16 0.68 16 0 16 C0 10.72 0 5.44 0 0 Z " fill="#3E4B2C" transform="translate(96,109)"/>
<path d="M0 0 C0.66 1.32 1.32 2.64 2 4 C2.66 4 3.32 4 4 4 C4.33 6.97 4.66 9.94 5 13 C4.01 13 3.02 13 2 13 C2 12.01 2 11.02 2 10 C1.01 9.67 0.02 9.34 -1 9 C-0.67 6.03 -0.34 3.06 0 0 Z " fill="#77816A" transform="translate(110,112)"/>
<path d="M0 0 C2.97 0.33 5.94 0.66 9 1 C9 1.33 9 1.66 9 2 C7.35 2 5.7 2 4 2 C4 7.28 4 12.56 4 18 C3.67 18 3.34 18 3 18 C3 14.37 3 10.74 3 7 C2.34 7 1.68 7 1 7 C0.67 4.69 0.34 2.38 0 0 Z " fill="#EBF6E5" transform="translate(50,107)"/>
<path d="M0 0 C0.99 0 1.98 0 3 0 C2.67 5.28 2.34 10.56 2 16 C1.34 16 0.68 16 0 16 C0 10.72 0 5.44 0 0 Z " fill="#394827" transform="translate(77,109)"/>
<path d="M0 0 C0.33 0 0.66 0 1 0 C1.98248524 4.0527516 2.08159574 7.83861737 2 12 C1.01 11.67 0.02 11.34 -1 11 C-1 10.34 -1 9.68 -1 9 C-1.99 8.67 -2.98 8.34 -4 8 C-3.67 7.67 -3.34 7.34 -3 7 C-2.95936168 5.33382885 -2.957279 3.66611905 -3 2 C-2.34 2.33 -1.68 2.66 -1 3 C-0.67 2.01 -0.34 1.02 0 0 Z " fill="#8CC371" transform="translate(26,113)"/>
<path d="M0 0 C0 2.31 0 4.62 0 7 C-2.64 5.68 -5.28 4.36 -8 3 C-7 1 -7 1 -5.125 0.375 C-3 0 -3 0 0 0 Z " fill="#4A651C" transform="translate(152,52)"/>
<path d="M0 0 C-1.32 0.33 -2.64 0.66 -4 1 C-3.95875 2.11375 -3.9175 3.2275 -3.875 4.375 C-4 8 -4 8 -6 10 C-6.33 7.03 -6.66 4.06 -7 1 C-7.99 0.67 -8.98 0.34 -10 0 C-6.42355152 -1.2380014 -3.66305234 -0.74926071 0 0 Z " fill="#DBECD1" transform="translate(17,108)"/>
<path d="M0 0 C0.66 0 1.32 0 2 0 C2 2.31 2 4.62 2 7 C1.01 7 0.02 7 -1 7 C-1 7.99 -1 8.98 -1 10 C-1.66 10 -2.32 10 -3 10 C-3.2295711 6.63295715 -3.33943529 4.58629732 -1.625 1.625 C-1.08875 1.08875 -0.5525 0.5525 0 0 Z " fill="#808A74" transform="translate(69,115)"/>
<path d="M0 0 C-0.99 0.495 -0.99 0.495 -2 1 C-2 2.98 -2 4.96 -2 7 C-2.99 7 -3.98 7 -5 7 C-5 5.02 -5 3.04 -5 1 C-5.99 0.67 -6.98 0.34 -8 0 C-4.71023192 -1.09658936 -3.28696233 -0.79953138 0 0 Z " fill="#DADCD6" transform="translate(135,108)"/>
<path d="M0 0 C0.99 0 1.98 0 3 0 C3 1.65 3 3.3 3 5 C2.34 5 1.68 5 1 5 C1 8.3 1 11.6 1 15 C0.67 15 0.34 15 0 15 C0 10.05 0 5.1 0 0 Z " fill="#60B33A" transform="translate(7,109)"/>
<path d="M0 0 C1.32 0 2.64 0 4 0 C4 1.32 4 2.64 4 4 C3.34 4 2.68 4 2 4 C1.01 7.465 1.01 7.465 0 11 C-0.33 11 -0.66 11 -1 11 C-0.67 7.37 -0.34 3.74 0 0 Z " fill="#3D4B2B" transform="translate(68,109)"/>
<path d="M0 0 C0.33 0 0.66 0 1 0 C2.28571429 7.42857143 2.28571429 7.42857143 1 11 C0.01 11 -0.98 11 -2 11 C-1.85892253 9.54119891 -1.71197585 8.08296449 -1.5625 6.625 C-1.48128906 5.81289062 -1.40007812 5.00078125 -1.31640625 4.1640625 C-1 2 -1 2 0 0 Z " fill="#556247" transform="translate(108,114)"/>
<path d="M0 0 C1.98 0 3.96 0 6 0 C6 2.31 6 4.62 6 7 C5.34 6.34 4.68 5.68 4 5 C4 4.01 4 3.02 4 2 C3.01 2 2.02 2 1 2 C0.67 3.32 0.34 4.64 0 6 C0 4.02 0 2.04 0 0 Z " fill="#3B4B29" transform="translate(145,109)"/>
<path d="M0 0 C1.98 0 3.96 0 6 0 C6 1.32 6 2.64 6 4 C4.02 4 2.04 4 0 4 C0 2.68 0 1.36 0 0 Z " fill="#435E11" transform="translate(115,83)"/>
<path d="M0 0 C3.63 0 7.26 0 11 0 C11 0.66 11 1.32 11 2 C3.57142857 3.28571429 3.57142857 3.28571429 0 2 C0 1.34 0 0.68 0 0 Z " fill="#E1E2DE" transform="translate(138,107)"/>
<path d="M0 0 C2.29633824 3.44450737 2.54016485 5.93812283 3 10 C2.01 10.33 1.02 10.66 0 11 C0 7.37 0 3.74 0 0 Z " fill="#CDD1C7" transform="translate(79,114)"/>
<path d="M0 0 C1.65 0 3.3 0 5 0 C5 1.32 5 2.64 5 4 C3.35 4 1.7 4 0 4 C0 2.68 0 1.36 0 0 Z " fill="#26AE4F" transform="translate(47,70)"/>
<path d="M0 0 C1.98 0.99 1.98 0.99 4 2 C3.34 2 2.68 2 2 2 C2 4.64 2 7.28 2 10 C-0.4294516 6.3558226 -0.16179575 4.28758728 0 0 Z " fill="#CED2C9" transform="translate(81,107)"/>
<path d="M0 0 C0.99 0 1.98 0 3 0 C3 2.97 3 5.94 3 9 C1.35649921 5.71299843 0.58678331 3.52069985 0 0 Z " fill="#67B344" transform="translate(23,109)"/>
<path d="M0 0 C1.32 0.33 2.64 0.66 4 1 C4 1.66 4 2.32 4 3 C4.99 3.33 5.98 3.66 7 4 C4.69 4 2.38 4 0 4 C0 2.68 0 1.36 0 0 Z " fill="#DADED0" transform="translate(145,77)"/>
<path d="M0 0 C0.99 0 1.98 0 3 0 C3 0.66 3 1.32 3 2 C3.66 2.33 4.32 2.66 5 3 C5.33 3.66 5.66 4.32 6 5 C4.35 4.67 2.7 4.34 1 4 C0.67 2.68 0.34 1.36 0 0 Z " fill="#85BD69" transform="translate(30,120)"/>
<path d="M0 0 C0.33 0 0.66 0 1 0 C1 1.98 1 3.96 1 6 C-0.32 6.33 -1.64 6.66 -3 7 C-3 5.35 -3 3.7 -3 2 C-2.01 2.495 -2.01 2.495 -1 3 C-0.67 2.01 -0.34 1.02 0 0 Z " fill="#A4D090" transform="translate(26,113)"/>
</svg>
