<svg xmlns="http://www.w3.org/2000/svg" class="qr-svg qrcode" viewBox="0 0 45 45" preserveAspectRatio="xMidYMid">
<defs>
	<style><![CDATA[
		.dark{fill: #000000;}
		.light{fill: #eaeaea;}
		.logo{fill: #000000;}
	]]></style>
</defs>
<path class="qr-darkmodule dark qrcode" d="M12.05 33.5 a0.45 0.45 0 1 0 0.9 0 a0.45 0.45 0 1 0 -0.9 0Z"/>
<path class="qr-data-dark dark qrcode" d="M14.05 4.5 a0.45 0.45 0 1 0 0.9 0 a0.45 0.45 0 1 0 -0.9 0Z M16.05 4.5 a0.45 0.45 0 1 0 0.9 0 a0.45 0.45 0 1 0 -0.9 0Z M17.05 4.5 a0.45 0.45 0 1 0 0.9 0 a0.45 0.45 0 1 0 -0.9 0Z M18.05 4.5 a0.45 0.45 0 1 0 0.9 0 a0.45 0.45 0 1 0 -0.9 0Z M20.05 4.5 a0.45 0.45 0 1 0 0.9 0 a0.45 0.45 0 1 0 -0.9 0Z M21.05 4.5 a0.45 0.45 0 1 0 0.9 0 a0.45 0.45 0 1 0 -0.9 0Z M23.05 4.5 a0.45 0.45 0 1 0 0.9 0 a0.45 0.45 0 1 0 -0.9 0Z M24.05 4.5 a0.45 0.45 0 1 0 0.9 0 a0.45 0.45 0 1 0 -0.9 0Z M27.05 4.5 a0.45 0.45 0 1 0 0.9 0 a0.45 0.45 0 1 0 -0.9 0Z M30.05 4.5 a0.45 0.45 0 1 0 0.9 0 a0.45 0.45 0 1 0 -0.9 0Z M31.05 4.5 a0.45 0.45 0 1 0 0.9 0 a0.45 0.45 0 1 0 -0.9 0Z M14.05 5.5 a0.45 0.45 0 1 0 0.9 0 a0.45 0.45 0 1 0 -0.9 0Z M15.05 5.5 a0.45 0.45 0 1 0 0.9 0 a0.45 0.45 0 1 0 -0.9 0Z M16.05 5.5 a0.45 0.45 0 1 0 0.9 0 a0.45 0.45 0 1 0 -0.9 0Z M18.05 5.5 a0.45 0.45 0 1 0 0.9 0 a0.45 0.45 0 1 0 -0.9 0Z M19.05 5.5 a0.45 0.45 0 1 0 0.9 0 a0.45 0.45 0 1 0 -0.9 0Z M20.05 5.5 a0.45 0.45 0 1 0 0.9 0 a0.45 0.45 0 1 0 -0.9 0Z M21.05 5.5 a0.45 0.45 0 1 0 0.9 0 a0.45 0.45 0 1 0 -0.9 0Z M26.05 5.5 a0.45 0.45 0 1 0 0.9 0 a0.45 0.45 0 1 0 -0.9 0Z M31.05 5.5 a0.45 0.45 0 1 0 0.9 0 a0.45 0.45 0 1 0 -0.9 0Z M32.05 5.5 a0.45 0.45 0 1 0 0.9 0 a0.45 0.45 0 1 0 -0.9 0Z M13.05 6.5 a0.45 0.45 0 1 0 0.9 0 a0.45 0.45 0 1 0 -0.9 0Z M16.05 6.5 a0.45 0.45 0 1 0 0.9 0 a0.45 0.45 0 1 0 -0.9 0Z M17.05 6.5 a0.45 0.45 0 1 0 0.9 0 a0.45 0.45 0 1 0 -0.9 0Z M18.05 6.5 a0.45 0.45 0 1 0 0.9 0 a0.45 0.45 0 1 0 -0.9 0Z M23.05 6.5 a0.45 0.45 0 1 0 0.9 0 a0.45 0.45 0 1 0 -0.9 0Z M25.05 6.5 a0.45 0.45 0 1 0 0.9 0 a0.45 0.45 0 1 0 -0.9 0Z M27.05 6.5 a0.45 0.45 0 1 0 0.9 0 a0.45 0.45 0 1 0 -0.9 0Z M28.05 6.5 a0.45 0.45 0 1 0 0.9 0 a0.45 0.45 0 1 0 -0.9 0Z M30.05 6.5 a0.45 0.45 0 1 0 0.9 0 a0.45 0.45 0 1 0 -0.9 0Z M31.05 6.5 a0.45 0.45 0 1 0 0.9 0 a0.45 0.45 0 1 0 -0.9 0Z M15.05 7.5 a0.45 0.45 0 1 0 0.9 0 a0.45 0.45 0 1 0 -0.9 0Z M16.05 7.5 a0.45 0.45 0 1 0 0.9 0 a0.45 0.45 0 1 0 -0.9 0Z M18.05 7.5 a0.45 0.45 0 1 0 0.9 0 a0.45 0.45 0 1 0 -0.9 0Z M20.05 7.5 a0.45 0.45 0 1 0 0.9 0 a0.45 0.45 0 1 0 -0.9 0Z M21.05 7.5 a0.45 0.45 0 1 0 0.9 0 a0.45 0.45 0 1 0 -0.9 0Z M23.05 7.5 a0.45 0.45 0 1 0 0.9 0 a0.45 0.45 0 1 0 -0.9 0Z M24.05 7.5 a0.45 0.45 0 1 0 0.9 0 a0.45 0.45 0 1 0 -0.9 0Z M25.05 7.5 a0.45 0.45 0 1 0 0.9 0 a0.45 0.45 0 1 0 -0.9 0Z M26.05 7.5 a0.45 0.45 0 1 0 0.9 0 a0.45 0.45 0 1 0 -0.9 0Z M30.05 7.5 a0.45 0.45 0 1 0 0.9 0 a0.45 0.45 0 1 0 -0.9 0Z M14.05 8.5 a0.45 0.45 0 1 0 0.9 0 a0.45 0.45 0 1 0 -0.9 0Z M15.05 8.5 a0.45 0.45 0 1 0 0.9 0 a0.45 0.45 0 1 0 -0.9 0Z M16.05 8.5 a0.45 0.45 0 1 0 0.9 0 a0.45 0.45 0 1 0 -0.9 0Z M21.05 8.5 a0.45 0.45 0 1 0 0.9 0 a0.45 0.45 0 1 0 -0.9 0Z M24.05 8.5 a0.45 0.45 0 1 0 0.9 0 a0.45 0.45 0 1 0 -0.9 0Z M27.05 8.5 a0.45 0.45 0 1 0 0.9 0 a0.45 0.45 0 1 0 -0.9 0Z M30.05 8.5 a0.45 0.45 0 1 0 0.9 0 a0.45 0.45 0 1 0 -0.9 0Z M31.05 8.5 a0.45 0.45 0 1 0 0.9 0 a0.45 0.45 0 1 0 -0.9 0Z M13.05 9.5 a0.45 0.45 0 1 0 0.9 0 a0.45 0.45 0 1 0 -0.9 0Z M14.05 9.5 a0.45 0.45 0 1 0 0.9 0 a0.45 0.45 0 1 0 -0.9 0Z M15.05 9.5 a0.45 0.45 0 1 0 0.9 0 a0.45 0.45 0 1 0 -0.9 0Z M17.05 9.5 a0.45 0.45 0 1 0 0.9 0 a0.45 0.45 0 1 0 -0.9 0Z M19.05 9.5 a0.45 0.45 0 1 0 0.9 0 a0.45 0.45 0 1 0 -0.9 0Z M24.05 9.5 a0.45 0.45 0 1 0 0.9 0 a0.45 0.45 0 1 0 -0.9 0Z M25.05 9.5 a0.45 0.45 0 1 0 0.9 0 a0.45 0.45 0 1 0 -0.9 0Z M27.05 9.5 a0.45 0.45 0 1 0 0.9 0 a0.45 0.45 0 1 0 -0.9 0Z M31.05 9.5 a0.45 0.45 0 1 0 0.9 0 a0.45 0.45 0 1 0 -0.9 0Z M32.05 9.5 a0.45 0.45 0 1 0 0.9 0 a0.45 0.45 0 1 0 -0.9 0Z M13.05 11.5 a0.45 0.45 0 1 0 0.9 0 a0.45 0.45 0 1 0 -0.9 0Z M14.05 11.5 a0.45 0.45 0 1 0 0.9 0 a0.45 0.45 0 1 0 -0.9 0Z M15.05 11.5 a0.45 0.45 0 1 0 0.9 0 a0.45 0.45 0 1 0 -0.9 0Z M19.05 11.5 a0.45 0.45 0 1 0 0.9 0 a0.45 0.45 0 1 0 -0.9 0Z M20.05 11.5 a0.45 0.45 0 1 0 0.9 0 a0.45 0.45 0 1 0 -0.9 0Z M22.05 11.5 a0.45 0.45 0 1 0 0.9 0 a0.45 0.45 0 1 0 -0.9 0Z M25.05 11.5 a0.45 0.45 0 1 0 0.9 0 a0.45 0.45 0 1 0 -0.9 0Z M28.05 11.5 a0.45 0.45 0 1 0 0.9 0 a0.45 0.45 0 1 0 -0.9 0Z M30.05 11.5 a0.45 0.45 0 1 0 0.9 0 a0.45 0.45 0 1 0 -0.9 0Z M13.05 12.5 a0.45 0.45 0 1 0 0.9 0 a0.45 0.45 0 1 0 -0.9 0Z M14.05 12.5 a0.45 0.45 0 1 0 0.9 0 a0.45 0.45 0 1 0 -0.9 0Z M18.05 12.5 a0.45 0.45 0 1 0 0.9 0 a0.45 0.45 0 1 0 -0.9 0Z M21.05 12.5 a0.45 0.45 0 1 0 0.9 0 a0.45 0.45 0 1 0 -0.9 0Z M23.05 12.5 a0.45 0.45 0 1 0 0.9 0 a0.45 0.45 0 1 0 -0.9 0Z M26.05 12.5 a0.45 0.45 0 1 0 0.9 0 a0.45 0.45 0 1 0 -0.9 0Z M29.05 12.5 a0.45 0.45 0 1 0 0.9 0 a0.45 0.45 0 1 0 -0.9 0Z M31.05 12.5 a0.45 0.45 0 1 0 0.9 0 a0.45 0.45 0 1 0 -0.9 0Z M32.05 12.5 a0.45 0.45 0 1 0 0.9 0 a0.45 0.45 0 1 0 -0.9 0Z M4.05 13.5 a0.45 0.45 0 1 0 0.9 0 a0.45 0.45 0 1 0 -0.9 0Z M6.05 13.5 a0.45 0.45 0 1 0 0.9 0 a0.45 0.45 0 1 0 -0.9 0Z M7.05 13.5 a0.45 0.45 0 1 0 0.9 0 a0.45 0.45 0 1 0 -0.9 0Z M8.05 13.5 a0.45 0.45 0 1 0 0.9 0 a0.45 0.45 0 1 0 -0.9 0Z M9.05 13.5 a0.45 0.45 0 1 0 0.9 0 a0.45 0.45 0 1 0 -0.9 0Z M11.05 13.5 a0.45 0.45 0 1 0 0.9 0 a0.45 0.45 0 1 0 -0.9 0Z M12.05 13.5 a0.45 0.45 0 1 0 0.9 0 a0.45 0.45 0 1 0 -0.9 0Z M15.05 13.5 a0.45 0.45 0 1 0 0.9 0 a0.45 0.45 0 1 0 -0.9 0Z M16.05 13.5 a0.45 0.45 0 1 0 0.9 0 a0.45 0.45 0 1 0 -0.9 0Z M18.05 13.5 a0.45 0.45 0 1 0 0.9 0 a0.45 0.45 0 1 0 -0.9 0Z M20.05 13.5 a0.45 0.45 0 1 0 0.9 0 a0.45 0.45 0 1 0 -0.9 0Z M21.05 13.5 a0.45 0.45 0 1 0 0.9 0 a0.45 0.45 0 1 0 -0.9 0Z M22.05 13.5 a0.45 0.45 0 1 0 0.9 0 a0.45 0.45 0 1 0 -0.9 0Z M33.05 13.5 a0.45 0.45 0 1 0 0.9 0 a0.45 0.45 0 1 0 -0.9 0Z M34.05 13.5 a0.45 0.45 0 1 0 0.9 0 a0.45 0.45 0 1 0 -0.9 0Z M35.05 13.5 a0.45 0.45 0 1 0 0.9 0 a0.45 0.45 0 1 0 -0.9 0Z M37.05 13.5 a0.45 0.45 0 1 0 0.9 0 a0.45 0.45 0 1 0 -0.9 0Z M40.05 13.5 a0.45 0.45 0 1 0 0.9 0 a0.45 0.45 0 1 0 -0.9 0Z M6.05 14.5 a0.45 0.45 0 1 0 0.9 0 a0.45 0.45 0 1 0 -0.9 0Z M8.05 14.5 a0.45 0.45 0 1 0 0.9 0 a0.45 0.45 0 1 0 -0.9 0Z M9.05 14.5 a0.45 0.45 0 1 0 0.9 0 a0.45 0.45 0 1 0 -0.9 0Z M11.05 14.5 a0.45 0.45 0 1 0 0.9 0 a0.45 0.45 0 1 0 -0.9 0Z M19.05 14.5 a0.45 0.45 0 1 0 0.9 0 a0.45 0.45 0 1 0 -0.9 0Z
M21.05 14.5 a0.45 0.45 0 1 0 0.9 0 a0.45 0.45 0 1 0 -0.9 0Z M22.05 14.5 a0.45 0.45 0 1 0 0.9 0 a0.45 0.45 0 1 0 -0.9 0Z M25.05 14.5 a0.45 0.45 0 1 0 0.9 0 a0.45 0.45 0 1 0 -0.9 0Z M28.05 14.5 a0.45 0.45 0 1 0 0.9 0 a0.45 0.45 0 1 0 -0.9 0Z M32.05 14.5 a0.45 0.45 0 1 0 0.9 0 a0.45 0.45 0 1 0 -0.9 0Z M34.05 14.5 a0.45 0.45 0 1 0 0.9 0 a0.45 0.45 0 1 0 -0.9 0Z M35.05 14.5 a0.45 0.45 0 1 0 0.9 0 a0.45 0.45 0 1 0 -0.9 0Z M37.05 14.5 a0.45 0.45 0 1 0 0.9 0 a0.45 0.45 0 1 0 -0.9 0Z M38.05 14.5 a0.45 0.45 0 1 0 0.9 0 a0.45 0.45 0 1 0 -0.9 0Z M39.05 14.5 a0.45 0.45 0 1 0 0.9 0 a0.45 0.45 0 1 0 -0.9 0Z M40.05 14.5 a0.45 0.45 0 1 0 0.9 0 a0.45 0.45 0 1 0 -0.9 0Z M5.05 15.5 a0.45 0.45 0 1 0 0.9 0 a0.45 0.45 0 1 0 -0.9 0Z M9.05 15.5 a0.45 0.45 0 1 0 0.9 0 a0.45 0.45 0 1 0 -0.9 0Z M11.05 15.5 a0.45 0.45 0 1 0 0.9 0 a0.45 0.45 0 1 0 -0.9 0Z M12.05 15.5 a0.45 0.45 0 1 0 0.9 0 a0.45 0.45 0 1 0 -0.9 0Z M13.05 15.5 a0.45 0.45 0 1 0 0.9 0 a0.45 0.45 0 1 0 -0.9 0Z M17.05 15.5 a0.45 0.45 0 1 0 0.9 0 a0.45 0.45 0 1 0 -0.9 0Z M20.05 15.5 a0.45 0.45 0 1 0 0.9 0 a0.45 0.45 0 1 0 -0.9 0Z M21.05 15.5 a0.45 0.45 0 1 0 0.9 0 a0.45 0.45 0 1 0 -0.9 0Z M25.05 15.5 a0.45 0.45 0 1 0 0.9 0 a0.45 0.45 0 1 0 -0.9 0Z M26.05 15.5 a0.45 0.45 0 1 0 0.9 0 a0.45 0.45 0 1 0 -0.9 0Z M27.05 15.5 a0.45 0.45 0 1 0 0.9 0 a0.45 0.45 0 1 0 -0.9 0Z M28.05 15.5 a0.45 0.45 0 1 0 0.9 0 a0.45 0.45 0 1 0 -0.9 0Z M29.05 15.5 a0.45 0.45 0 1 0 0.9 0 a0.45 0.45 0 1 0 -0.9 0Z M31.05 15.5 a0.45 0.45 0 1 0 0.9 0 a0.45 0.45 0 1 0 -0.9 0Z M35.05 15.5 a0.45 0.45 0 1 0 0.9 0 a0.45 0.45 0 1 0 -0.9 0Z M36.05 15.5 a0.45 0.45 0 1 0 0.9 0 a0.45 0.45 0 1 0 -0.9 0Z M5.05 16.5 a0.45 0.45 0 1 0 0.9 0 a0.45 0.45 0 1 0 -0.9 0Z M11.05 16.5 a0.45 0.45 0 1 0 0.9 0 a0.45 0.45 0 1 0 -0.9 0Z M13.05 16.5 a0.45 0.45 0 1 0 0.9 0 a0.45 0.45 0 1 0 -0.9 0Z M14.05 16.5 a0.45 0.45 0 1 0 0.9 0 a0.45 0.45 0 1 0 -0.9 0Z M15.05 16.5 a0.45 0.45 0 1 0 0.9 0 a0.45 0.45 0 1 0 -0.9 0Z M29.05 16.5 a0.45 0.45 0 1 0 0.9 0 a0.45 0.45 0 1 0 -0.9 0Z M32.05 16.5 a0.45 0.45 0 1 0 0.9 0 a0.45 0.45 0 1 0 -0.9 0Z M33.05 16.5 a0.45 0.45 0 1 0 0.9 0 a0.45 0.45 0 1 0 -0.9 0Z M34.05 16.5 a0.45 0.45 0 1 0 0.9 0 a0.45 0.45 0 1 0 -0.9 0Z M5.05 17.5 a0.45 0.45 0 1 0 0.9 0 a0.45 0.45 0 1 0 -0.9 0Z M8.05 17.5 a0.45 0.45 0 1 0 0.9 0 a0.45 0.45 0 1 0 -0.9 0Z M9.05 17.5 a0.45 0.45 0 1 0 0.9 0 a0.45 0.45 0 1 0 -0.9 0Z M12.05 17.5 a0.45 0.45 0 1 0 0.9 0 a0.45 0.45 0 1 0 -0.9 0Z M13.05 17.5 a0.45 0.45 0 1 0 0.9 0 a0.45 0.45 0 1 0 -0.9 0Z M14.05 17.5 a0.45 0.45 0 1 0 0.9 0 a0.45 0.45 0 1 0 -0.9 0Z M15.05 17.5 a0.45 0.45 0 1 0 0.9 0 a0.45 0.45 0 1 0 -0.9 0Z M30.05 17.5 a0.45 0.45 0 1 0 0.9 0 a0.45 0.45 0 1 0 -0.9 0Z M34.05 17.5 a0.45 0.45 0 1 0 0.9 0 a0.45 0.45 0 1 0 -0.9 0Z M35.05 17.5 a0.45 0.45 0 1 0 0.9 0 a0.45 0.45 0 1 0 -0.9 0Z M37.05 17.5 a0.45 0.45 0 1 0 0.9 0 a0.45 0.45 0 1 0 -0.9 0Z M40.05 17.5 a0.45 0.45 0 1 0 0.9 0 a0.45 0.45 0 1 0 -0.9 0Z M5.05 18.5 a0.45 0.45 0 1 0 0.9 0 a0.45 0.45 0 1 0 -0.9 0Z M7.05 18.5 a0.45 0.45 0 1 0 0.9 0 a0.45 0.45 0 1 0 -0.9 0Z M9.05 18.5 a0.45 0.45 0 1 0 0.9 0 a0.45 0.45 0 1 0 -0.9 0Z M12.05 18.5 a0.45 0.45 0 1 0 0.9 0 a0.45 0.45 0 1 0 -0.9 0Z M13.05 18.5 a0.45 0.45 0 1 0 0.9 0 a0.45 0.45 0 1 0 -0.9 0Z M14.05 18.5 a0.45 0.45 0 1 0 0.9 0 a0.45 0.45 0 1 0 -0.9 0Z M15.05 18.5 a0.45 0.45 0 1 0 0.9 0 a0.45 0.45 0 1 0 -0.9 0Z M29.05 18.5 a0.45 0.45 0 1 0 0.9 0 a0.45 0.45 0 1 0 -0.9 0Z M30.05 18.5 a0.45 0.45 0 1 0 0.9 0 a0.45 0.45 0 1 0 -0.9 0Z M34.05 18.5 a0.45 0.45 0 1 0 0.9 0 a0.45 0.45 0 1 0 -0.9 0Z M36.05 18.5 a0.45 0.45 0 1 0 0.9 0 a0.45 0.45 0 1 0 -0.9 0Z M38.05 18.5 a0.45 0.45 0 1 0 0.9 0 a0.45 0.45 0 1 0 -0.9 0Z M40.05 18.5 a0.45 0.45 0 1 0 0.9 0 a0.45 0.45 0 1 0 -0.9 0Z M4.05 19.5 a0.45 0.45 0 1 0 0.9 0 a0.45 0.45 0 1 0 -0.9 0Z M5.05 19.5 a0.45 0.45 0 1 0 0.9 0 a0.45 0.45 0 1 0 -0.9 0Z M9.05 19.5 a0.45 0.45 0 1 0 0.9 0 a0.45 0.45 0 1 0 -0.9 0Z M12.05 19.5 a0.45 0.45 0 1 0 0.9 0 a0.45 0.45 0 1 0 -0.9 0Z M15.05 19.5 a0.45 0.45 0 1 0 0.9 0 a0.45 0.45 0 1 0 -0.9 0Z M29.05 19.5 a0.45 0.45 0 1 0 0.9 0 a0.45 0.45 0 1 0 -0.9 0Z M30.05 19.5 a0.45 0.45 0 1 0 0.9 0 a0.45 0.45 0 1 0 -0.9 0Z M32.05 19.5 a0.45 0.45 0 1 0 0.9 0 a0.45 0.45 0 1 0 -0.9 0Z M36.05 19.5 a0.45 0.45 0 1 0 0.9 0 a0.45 0.45 0 1 0 -0.9 0Z M39.05 19.5 a0.45 0.45 0 1 0 0.9 0 a0.45 0.45 0 1 0 -0.9 0Z M40.05 19.5 a0.45 0.45 0 1 0 0.9 0 a0.45 0.45 0 1 0 -0.9 0Z M4.05 20.5 a0.45 0.45 0 1 0 0.9 0 a0.45 0.45 0 1 0 -0.9 0Z M7.05 20.5 a0.45 0.45 0 1 0 0.9 0 a0.45 0.45 0 1 0 -0.9 0Z M9.05 20.5 a0.45 0.45 0 1 0 0.9 0 a0.45 0.45 0 1 0 -0.9 0Z M12.05 20.5 a0.45 0.45 0 1 0 0.9 0 a0.45 0.45 0 1 0 -0.9 0Z M13.05 20.5 a0.45 0.45 0 1 0 0.9 0 a0.45 0.45 0 1 0 -0.9 0Z M14.05 20.5 a0.45 0.45 0 1 0 0.9 0 a0.45 0.45 0 1 0 -0.9 0Z M15.05 20.5 a0.45 0.45 0 1 0 0.9 0 a0.45 0.45 0 1 0 -0.9 0Z M31.05 20.5 a0.45 0.45 0 1 0 0.9 0 a0.45 0.45 0 1 0 -0.9 0Z M33.05 20.5 a0.45 0.45 0 1 0 0.9 0 a0.45 0.45 0 1 0 -0.9 0Z M34.05 20.5 a0.45 0.45 0 1 0 0.9 0 a0.45 0.45 0 1 0 -0.9 0Z M35.05 20.5 a0.45 0.45 0 1 0 0.9 0 a0.45 0.45 0 1 0 -0.9 0Z M37.05 20.5 a0.45 0.45 0 1 0 0.9 0 a0.45 0.45 0 1 0 -0.9 0Z M38.05 20.5 a0.45 0.45 0 1 0 0.9 0 a0.45 0.45 0 1 0 -0.9 0Z M40.05 20.5 a0.45 0.45 0 1 0 0.9 0 a0.45 0.45 0 1 0 -0.9 0Z M7.05 21.5 a0.45 0.45 0 1 0 0.9 0 a0.45 0.45 0 1 0 -0.9 0Z M9.05 21.5 a0.45 0.45 0 1 0 0.9 0 a0.45 0.45 0 1 0 -0.9 0Z M11.05 21.5 a0.45 0.45 0 1 0 0.9 0 a0.45 0.45 0 1 0 -0.9 0Z M12.05 21.5 a0.45 0.45 0 1 0 0.9 0 a0.45 0.45 0 1 0 -0.9 0Z M14.05 21.5 a0.45 0.45 0 1 0 0.9 0 a0.45 0.45 0 1 0 -0.9 0Z M30.05 21.5 a0.45 0.45 0 1 0 0.9 0 a0.45 0.45 0 1 0 -0.9 0Z M33.05 21.5 a0.45 0.45 0 1 0 0.9 0 a0.45 0.45 0 1 0 -0.9 0Z M34.05 21.5 a0.45 0.45 0 1 0 0.9 0 a0.45 0.45 0 1 0 -0.9 0Z M36.05 21.5 a0.45 0.45 0 1 0 0.9 0 a0.45 0.45 0 1 0 -0.9 0Z M37.05 21.5 a0.45 0.45 0 1 0 0.9 0 a0.45 0.45 0 1 0 -0.9 0Z M40.05 21.5 a0.45 0.45 0 1 0 0.9 0 a0.45 0.45 0 1 0 -0.9 0Z M5.05 22.5 a0.45 0.45 0 1 0 0.9 0 a0.45 0.45 0 1 0 -0.9 0Z M8.05 22.5 a0.45 0.45 0 1 0 0.9 0 a0.45 0.45 0 1 0 -0.9 0Z M13.05 22.5 a0.45 0.45 0 1 0 0.9 0 a0.45 0.45 0 1 0 -0.9 0Z
M14.05 22.5 a0.45 0.45 0 1 0 0.9 0 a0.45 0.45 0 1 0 -0.9 0Z M29.05 22.5 a0.45 0.45 0 1 0 0.9 0 a0.45 0.45 0 1 0 -0.9 0Z M37.05 22.5 a0.45 0.45 0 1 0 0.9 0 a0.45 0.45 0 1 0 -0.9 0Z M39.05 22.5 a0.45 0.45 0 1 0 0.9 0 a0.45 0.45 0 1 0 -0.9 0Z M40.05 22.5 a0.45 0.45 0 1 0 0.9 0 a0.45 0.45 0 1 0 -0.9 0Z M5.05 23.5 a0.45 0.45 0 1 0 0.9 0 a0.45 0.45 0 1 0 -0.9 0Z M6.05 23.5 a0.45 0.45 0 1 0 0.9 0 a0.45 0.45 0 1 0 -0.9 0Z M7.05 23.5 a0.45 0.45 0 1 0 0.9 0 a0.45 0.45 0 1 0 -0.9 0Z M8.05 23.5 a0.45 0.45 0 1 0 0.9 0 a0.45 0.45 0 1 0 -0.9 0Z M9.05 23.5 a0.45 0.45 0 1 0 0.9 0 a0.45 0.45 0 1 0 -0.9 0Z M11.05 23.5 a0.45 0.45 0 1 0 0.9 0 a0.45 0.45 0 1 0 -0.9 0Z M12.05 23.5 a0.45 0.45 0 1 0 0.9 0 a0.45 0.45 0 1 0 -0.9 0Z M15.05 23.5 a0.45 0.45 0 1 0 0.9 0 a0.45 0.45 0 1 0 -0.9 0Z M31.05 23.5 a0.45 0.45 0 1 0 0.9 0 a0.45 0.45 0 1 0 -0.9 0Z M32.05 23.5 a0.45 0.45 0 1 0 0.9 0 a0.45 0.45 0 1 0 -0.9 0Z M38.05 23.5 a0.45 0.45 0 1 0 0.9 0 a0.45 0.45 0 1 0 -0.9 0Z M39.05 23.5 a0.45 0.45 0 1 0 0.9 0 a0.45 0.45 0 1 0 -0.9 0Z M4.05 24.5 a0.45 0.45 0 1 0 0.9 0 a0.45 0.45 0 1 0 -0.9 0Z M6.05 24.5 a0.45 0.45 0 1 0 0.9 0 a0.45 0.45 0 1 0 -0.9 0Z M7.05 24.5 a0.45 0.45 0 1 0 0.9 0 a0.45 0.45 0 1 0 -0.9 0Z M13.05 24.5 a0.45 0.45 0 1 0 0.9 0 a0.45 0.45 0 1 0 -0.9 0Z M29.05 24.5 a0.45 0.45 0 1 0 0.9 0 a0.45 0.45 0 1 0 -0.9 0Z M32.05 24.5 a0.45 0.45 0 1 0 0.9 0 a0.45 0.45 0 1 0 -0.9 0Z M34.05 24.5 a0.45 0.45 0 1 0 0.9 0 a0.45 0.45 0 1 0 -0.9 0Z M35.05 24.5 a0.45 0.45 0 1 0 0.9 0 a0.45 0.45 0 1 0 -0.9 0Z M36.05 24.5 a0.45 0.45 0 1 0 0.9 0 a0.45 0.45 0 1 0 -0.9 0Z M4.05 25.5 a0.45 0.45 0 1 0 0.9 0 a0.45 0.45 0 1 0 -0.9 0Z M5.05 25.5 a0.45 0.45 0 1 0 0.9 0 a0.45 0.45 0 1 0 -0.9 0Z M6.05 25.5 a0.45 0.45 0 1 0 0.9 0 a0.45 0.45 0 1 0 -0.9 0Z M7.05 25.5 a0.45 0.45 0 1 0 0.9 0 a0.45 0.45 0 1 0 -0.9 0Z M8.05 25.5 a0.45 0.45 0 1 0 0.9 0 a0.45 0.45 0 1 0 -0.9 0Z M12.05 25.5 a0.45 0.45 0 1 0 0.9 0 a0.45 0.45 0 1 0 -0.9 0Z M15.05 25.5 a0.45 0.45 0 1 0 0.9 0 a0.45 0.45 0 1 0 -0.9 0Z M29.05 25.5 a0.45 0.45 0 1 0 0.9 0 a0.45 0.45 0 1 0 -0.9 0Z M33.05 25.5 a0.45 0.45 0 1 0 0.9 0 a0.45 0.45 0 1 0 -0.9 0Z M34.05 25.5 a0.45 0.45 0 1 0 0.9 0 a0.45 0.45 0 1 0 -0.9 0Z M40.05 25.5 a0.45 0.45 0 1 0 0.9 0 a0.45 0.45 0 1 0 -0.9 0Z M5.05 26.5 a0.45 0.45 0 1 0 0.9 0 a0.45 0.45 0 1 0 -0.9 0Z M7.05 26.5 a0.45 0.45 0 1 0 0.9 0 a0.45 0.45 0 1 0 -0.9 0Z M9.05 26.5 a0.45 0.45 0 1 0 0.9 0 a0.45 0.45 0 1 0 -0.9 0Z M15.05 26.5 a0.45 0.45 0 1 0 0.9 0 a0.45 0.45 0 1 0 -0.9 0Z M30.05 26.5 a0.45 0.45 0 1 0 0.9 0 a0.45 0.45 0 1 0 -0.9 0Z M33.05 26.5 a0.45 0.45 0 1 0 0.9 0 a0.45 0.45 0 1 0 -0.9 0Z M35.05 26.5 a0.45 0.45 0 1 0 0.9 0 a0.45 0.45 0 1 0 -0.9 0Z M36.05 26.5 a0.45 0.45 0 1 0 0.9 0 a0.45 0.45 0 1 0 -0.9 0Z M37.05 26.5 a0.45 0.45 0 1 0 0.9 0 a0.45 0.45 0 1 0 -0.9 0Z M39.05 26.5 a0.45 0.45 0 1 0 0.9 0 a0.45 0.45 0 1 0 -0.9 0Z M40.05 26.5 a0.45 0.45 0 1 0 0.9 0 a0.45 0.45 0 1 0 -0.9 0Z M4.05 27.5 a0.45 0.45 0 1 0 0.9 0 a0.45 0.45 0 1 0 -0.9 0Z M5.05 27.5 a0.45 0.45 0 1 0 0.9 0 a0.45 0.45 0 1 0 -0.9 0Z M7.05 27.5 a0.45 0.45 0 1 0 0.9 0 a0.45 0.45 0 1 0 -0.9 0Z M8.05 27.5 a0.45 0.45 0 1 0 0.9 0 a0.45 0.45 0 1 0 -0.9 0Z M9.05 27.5 a0.45 0.45 0 1 0 0.9 0 a0.45 0.45 0 1 0 -0.9 0Z M12.05 27.5 a0.45 0.45 0 1 0 0.9 0 a0.45 0.45 0 1 0 -0.9 0Z M13.05 27.5 a0.45 0.45 0 1 0 0.9 0 a0.45 0.45 0 1 0 -0.9 0Z M29.05 27.5 a0.45 0.45 0 1 0 0.9 0 a0.45 0.45 0 1 0 -0.9 0Z M33.05 27.5 a0.45 0.45 0 1 0 0.9 0 a0.45 0.45 0 1 0 -0.9 0Z M34.05 27.5 a0.45 0.45 0 1 0 0.9 0 a0.45 0.45 0 1 0 -0.9 0Z M36.05 27.5 a0.45 0.45 0 1 0 0.9 0 a0.45 0.45 0 1 0 -0.9 0Z M39.05 27.5 a0.45 0.45 0 1 0 0.9 0 a0.45 0.45 0 1 0 -0.9 0Z M5.05 28.5 a0.45 0.45 0 1 0 0.9 0 a0.45 0.45 0 1 0 -0.9 0Z M6.05 28.5 a0.45 0.45 0 1 0 0.9 0 a0.45 0.45 0 1 0 -0.9 0Z M7.05 28.5 a0.45 0.45 0 1 0 0.9 0 a0.45 0.45 0 1 0 -0.9 0Z M9.05 28.5 a0.45 0.45 0 1 0 0.9 0 a0.45 0.45 0 1 0 -0.9 0Z M11.05 28.5 a0.45 0.45 0 1 0 0.9 0 a0.45 0.45 0 1 0 -0.9 0Z M13.05 28.5 a0.45 0.45 0 1 0 0.9 0 a0.45 0.45 0 1 0 -0.9 0Z M14.05 28.5 a0.45 0.45 0 1 0 0.9 0 a0.45 0.45 0 1 0 -0.9 0Z M15.05 28.5 a0.45 0.45 0 1 0 0.9 0 a0.45 0.45 0 1 0 -0.9 0Z M29.05 28.5 a0.45 0.45 0 1 0 0.9 0 a0.45 0.45 0 1 0 -0.9 0Z M30.05 28.5 a0.45 0.45 0 1 0 0.9 0 a0.45 0.45 0 1 0 -0.9 0Z M31.05 28.5 a0.45 0.45 0 1 0 0.9 0 a0.45 0.45 0 1 0 -0.9 0Z M33.05 28.5 a0.45 0.45 0 1 0 0.9 0 a0.45 0.45 0 1 0 -0.9 0Z M34.05 28.5 a0.45 0.45 0 1 0 0.9 0 a0.45 0.45 0 1 0 -0.9 0Z M35.05 28.5 a0.45 0.45 0 1 0 0.9 0 a0.45 0.45 0 1 0 -0.9 0Z M40.05 28.5 a0.45 0.45 0 1 0 0.9 0 a0.45 0.45 0 1 0 -0.9 0Z M5.05 29.5 a0.45 0.45 0 1 0 0.9 0 a0.45 0.45 0 1 0 -0.9 0Z M7.05 29.5 a0.45 0.45 0 1 0 0.9 0 a0.45 0.45 0 1 0 -0.9 0Z M8.05 29.5 a0.45 0.45 0 1 0 0.9 0 a0.45 0.45 0 1 0 -0.9 0Z M9.05 29.5 a0.45 0.45 0 1 0 0.9 0 a0.45 0.45 0 1 0 -0.9 0Z M13.05 29.5 a0.45 0.45 0 1 0 0.9 0 a0.45 0.45 0 1 0 -0.9 0Z M14.05 29.5 a0.45 0.45 0 1 0 0.9 0 a0.45 0.45 0 1 0 -0.9 0Z M16.05 29.5 a0.45 0.45 0 1 0 0.9 0 a0.45 0.45 0 1 0 -0.9 0Z M17.05 29.5 a0.45 0.45 0 1 0 0.9 0 a0.45 0.45 0 1 0 -0.9 0Z M18.05 29.5 a0.45 0.45 0 1 0 0.9 0 a0.45 0.45 0 1 0 -0.9 0Z M21.05 29.5 a0.45 0.45 0 1 0 0.9 0 a0.45 0.45 0 1 0 -0.9 0Z M24.05 29.5 a0.45 0.45 0 1 0 0.9 0 a0.45 0.45 0 1 0 -0.9 0Z M27.05 29.5 a0.45 0.45 0 1 0 0.9 0 a0.45 0.45 0 1 0 -0.9 0Z M30.05 29.5 a0.45 0.45 0 1 0 0.9 0 a0.45 0.45 0 1 0 -0.9 0Z M34.05 29.5 a0.45 0.45 0 1 0 0.9 0 a0.45 0.45 0 1 0 -0.9 0Z M35.05 29.5 a0.45 0.45 0 1 0 0.9 0 a0.45 0.45 0 1 0 -0.9 0Z M37.05 29.5 a0.45 0.45 0 1 0 0.9 0 a0.45 0.45 0 1 0 -0.9 0Z M39.05 29.5 a0.45 0.45 0 1 0 0.9 0 a0.45 0.45 0 1 0 -0.9 0Z M40.05 29.5 a0.45 0.45 0 1 0 0.9 0 a0.45 0.45 0 1 0 -0.9 0Z M4.05 30.5 a0.45 0.45 0 1 0 0.9 0 a0.45 0.45 0 1 0 -0.9 0Z M14.05 30.5 a0.45 0.45 0 1 0 0.9 0 a0.45 0.45 0 1 0 -0.9 0Z M17.05 30.5 a0.45 0.45 0 1 0 0.9 0 a0.45 0.45 0 1 0 -0.9 0Z M23.05 30.5 a0.45 0.45 0 1 0 0.9 0 a0.45 0.45 0 1 0 -0.9 0Z M24.05 30.5 a0.45 0.45 0 1 0 0.9 0 a0.45 0.45 0 1 0 -0.9 0Z M26.05 30.5 a0.45 0.45 0 1 0 0.9 0 a0.45 0.45 0 1 0 -0.9 0Z M27.05 30.5 a0.45 0.45 0 1 0 0.9 0 a0.45 0.45 0 1 0 -0.9 0Z
M29.05 30.5 a0.45 0.45 0 1 0 0.9 0 a0.45 0.45 0 1 0 -0.9 0Z M30.05 30.5 a0.45 0.45 0 1 0 0.9 0 a0.45 0.45 0 1 0 -0.9 0Z M33.05 30.5 a0.45 0.45 0 1 0 0.9 0 a0.45 0.45 0 1 0 -0.9 0Z M34.05 30.5 a0.45 0.45 0 1 0 0.9 0 a0.45 0.45 0 1 0 -0.9 0Z M35.05 30.5 a0.45 0.45 0 1 0 0.9 0 a0.45 0.45 0 1 0 -0.9 0Z M38.05 30.5 a0.45 0.45 0 1 0 0.9 0 a0.45 0.45 0 1 0 -0.9 0Z M40.05 30.5 a0.45 0.45 0 1 0 0.9 0 a0.45 0.45 0 1 0 -0.9 0Z M5.05 31.5 a0.45 0.45 0 1 0 0.9 0 a0.45 0.45 0 1 0 -0.9 0Z M7.05 31.5 a0.45 0.45 0 1 0 0.9 0 a0.45 0.45 0 1 0 -0.9 0Z M9.05 31.5 a0.45 0.45 0 1 0 0.9 0 a0.45 0.45 0 1 0 -0.9 0Z M11.05 31.5 a0.45 0.45 0 1 0 0.9 0 a0.45 0.45 0 1 0 -0.9 0Z M15.05 31.5 a0.45 0.45 0 1 0 0.9 0 a0.45 0.45 0 1 0 -0.9 0Z M21.05 31.5 a0.45 0.45 0 1 0 0.9 0 a0.45 0.45 0 1 0 -0.9 0Z M23.05 31.5 a0.45 0.45 0 1 0 0.9 0 a0.45 0.45 0 1 0 -0.9 0Z M27.05 31.5 a0.45 0.45 0 1 0 0.9 0 a0.45 0.45 0 1 0 -0.9 0Z M29.05 31.5 a0.45 0.45 0 1 0 0.9 0 a0.45 0.45 0 1 0 -0.9 0Z M34.05 31.5 a0.45 0.45 0 1 0 0.9 0 a0.45 0.45 0 1 0 -0.9 0Z M35.05 31.5 a0.45 0.45 0 1 0 0.9 0 a0.45 0.45 0 1 0 -0.9 0Z M36.05 31.5 a0.45 0.45 0 1 0 0.9 0 a0.45 0.45 0 1 0 -0.9 0Z M39.05 31.5 a0.45 0.45 0 1 0 0.9 0 a0.45 0.45 0 1 0 -0.9 0Z M4.05 32.5 a0.45 0.45 0 1 0 0.9 0 a0.45 0.45 0 1 0 -0.9 0Z M5.05 32.5 a0.45 0.45 0 1 0 0.9 0 a0.45 0.45 0 1 0 -0.9 0Z M6.05 32.5 a0.45 0.45 0 1 0 0.9 0 a0.45 0.45 0 1 0 -0.9 0Z M8.05 32.5 a0.45 0.45 0 1 0 0.9 0 a0.45 0.45 0 1 0 -0.9 0Z M9.05 32.5 a0.45 0.45 0 1 0 0.9 0 a0.45 0.45 0 1 0 -0.9 0Z M13.05 32.5 a0.45 0.45 0 1 0 0.9 0 a0.45 0.45 0 1 0 -0.9 0Z M16.05 32.5 a0.45 0.45 0 1 0 0.9 0 a0.45 0.45 0 1 0 -0.9 0Z M18.05 32.5 a0.45 0.45 0 1 0 0.9 0 a0.45 0.45 0 1 0 -0.9 0Z M19.05 32.5 a0.45 0.45 0 1 0 0.9 0 a0.45 0.45 0 1 0 -0.9 0Z M20.05 32.5 a0.45 0.45 0 1 0 0.9 0 a0.45 0.45 0 1 0 -0.9 0Z M21.05 32.5 a0.45 0.45 0 1 0 0.9 0 a0.45 0.45 0 1 0 -0.9 0Z M23.05 32.5 a0.45 0.45 0 1 0 0.9 0 a0.45 0.45 0 1 0 -0.9 0Z M24.05 32.5 a0.45 0.45 0 1 0 0.9 0 a0.45 0.45 0 1 0 -0.9 0Z M25.05 32.5 a0.45 0.45 0 1 0 0.9 0 a0.45 0.45 0 1 0 -0.9 0Z M26.05 32.5 a0.45 0.45 0 1 0 0.9 0 a0.45 0.45 0 1 0 -0.9 0Z M28.05 32.5 a0.45 0.45 0 1 0 0.9 0 a0.45 0.45 0 1 0 -0.9 0Z M38.05 32.5 a0.45 0.45 0 1 0 0.9 0 a0.45 0.45 0 1 0 -0.9 0Z M39.05 32.5 a0.45 0.45 0 1 0 0.9 0 a0.45 0.45 0 1 0 -0.9 0Z M40.05 32.5 a0.45 0.45 0 1 0 0.9 0 a0.45 0.45 0 1 0 -0.9 0Z M13.05 33.5 a0.45 0.45 0 1 0 0.9 0 a0.45 0.45 0 1 0 -0.9 0Z M14.05 33.5 a0.45 0.45 0 1 0 0.9 0 a0.45 0.45 0 1 0 -0.9 0Z M15.05 33.5 a0.45 0.45 0 1 0 0.9 0 a0.45 0.45 0 1 0 -0.9 0Z M16.05 33.5 a0.45 0.45 0 1 0 0.9 0 a0.45 0.45 0 1 0 -0.9 0Z M17.05 33.5 a0.45 0.45 0 1 0 0.9 0 a0.45 0.45 0 1 0 -0.9 0Z M18.05 33.5 a0.45 0.45 0 1 0 0.9 0 a0.45 0.45 0 1 0 -0.9 0Z M20.05 33.5 a0.45 0.45 0 1 0 0.9 0 a0.45 0.45 0 1 0 -0.9 0Z M23.05 33.5 a0.45 0.45 0 1 0 0.9 0 a0.45 0.45 0 1 0 -0.9 0Z M24.05 33.5 a0.45 0.45 0 1 0 0.9 0 a0.45 0.45 0 1 0 -0.9 0Z M27.05 33.5 a0.45 0.45 0 1 0 0.9 0 a0.45 0.45 0 1 0 -0.9 0Z M28.05 33.5 a0.45 0.45 0 1 0 0.9 0 a0.45 0.45 0 1 0 -0.9 0Z M30.05 33.5 a0.45 0.45 0 1 0 0.9 0 a0.45 0.45 0 1 0 -0.9 0Z M31.05 33.5 a0.45 0.45 0 1 0 0.9 0 a0.45 0.45 0 1 0 -0.9 0Z M39.05 33.5 a0.45 0.45 0 1 0 0.9 0 a0.45 0.45 0 1 0 -0.9 0Z M40.05 33.5 a0.45 0.45 0 1 0 0.9 0 a0.45 0.45 0 1 0 -0.9 0Z M13.05 34.5 a0.45 0.45 0 1 0 0.9 0 a0.45 0.45 0 1 0 -0.9 0Z M14.05 34.5 a0.45 0.45 0 1 0 0.9 0 a0.45 0.45 0 1 0 -0.9 0Z M15.05 34.5 a0.45 0.45 0 1 0 0.9 0 a0.45 0.45 0 1 0 -0.9 0Z M16.05 34.5 a0.45 0.45 0 1 0 0.9 0 a0.45 0.45 0 1 0 -0.9 0Z M17.05 34.5 a0.45 0.45 0 1 0 0.9 0 a0.45 0.45 0 1 0 -0.9 0Z M18.05 34.5 a0.45 0.45 0 1 0 0.9 0 a0.45 0.45 0 1 0 -0.9 0Z M24.05 34.5 a0.45 0.45 0 1 0 0.9 0 a0.45 0.45 0 1 0 -0.9 0Z M26.05 34.5 a0.45 0.45 0 1 0 0.9 0 a0.45 0.45 0 1 0 -0.9 0Z M28.05 34.5 a0.45 0.45 0 1 0 0.9 0 a0.45 0.45 0 1 0 -0.9 0Z M30.05 34.5 a0.45 0.45 0 1 0 0.9 0 a0.45 0.45 0 1 0 -0.9 0Z M31.05 34.5 a0.45 0.45 0 1 0 0.9 0 a0.45 0.45 0 1 0 -0.9 0Z M38.05 34.5 a0.45 0.45 0 1 0 0.9 0 a0.45 0.45 0 1 0 -0.9 0Z M39.05 34.5 a0.45 0.45 0 1 0 0.9 0 a0.45 0.45 0 1 0 -0.9 0Z M40.05 34.5 a0.45 0.45 0 1 0 0.9 0 a0.45 0.45 0 1 0 -0.9 0Z M13.05 35.5 a0.45 0.45 0 1 0 0.9 0 a0.45 0.45 0 1 0 -0.9 0Z M15.05 35.5 a0.45 0.45 0 1 0 0.9 0 a0.45 0.45 0 1 0 -0.9 0Z M20.05 35.5 a0.45 0.45 0 1 0 0.9 0 a0.45 0.45 0 1 0 -0.9 0Z M21.05 35.5 a0.45 0.45 0 1 0 0.9 0 a0.45 0.45 0 1 0 -0.9 0Z M23.05 35.5 a0.45 0.45 0 1 0 0.9 0 a0.45 0.45 0 1 0 -0.9 0Z M24.05 35.5 a0.45 0.45 0 1 0 0.9 0 a0.45 0.45 0 1 0 -0.9 0Z M28.05 35.5 a0.45 0.45 0 1 0 0.9 0 a0.45 0.45 0 1 0 -0.9 0Z M30.05 35.5 a0.45 0.45 0 1 0 0.9 0 a0.45 0.45 0 1 0 -0.9 0Z M31.05 35.5 a0.45 0.45 0 1 0 0.9 0 a0.45 0.45 0 1 0 -0.9 0Z M38.05 35.5 a0.45 0.45 0 1 0 0.9 0 a0.45 0.45 0 1 0 -0.9 0Z M13.05 36.5 a0.45 0.45 0 1 0 0.9 0 a0.45 0.45 0 1 0 -0.9 0Z M15.05 36.5 a0.45 0.45 0 1 0 0.9 0 a0.45 0.45 0 1 0 -0.9 0Z M18.05 36.5 a0.45 0.45 0 1 0 0.9 0 a0.45 0.45 0 1 0 -0.9 0Z M19.05 36.5 a0.45 0.45 0 1 0 0.9 0 a0.45 0.45 0 1 0 -0.9 0Z M22.05 36.5 a0.45 0.45 0 1 0 0.9 0 a0.45 0.45 0 1 0 -0.9 0Z M23.05 36.5 a0.45 0.45 0 1 0 0.9 0 a0.45 0.45 0 1 0 -0.9 0Z M24.05 36.5 a0.45 0.45 0 1 0 0.9 0 a0.45 0.45 0 1 0 -0.9 0Z M25.05 36.5 a0.45 0.45 0 1 0 0.9 0 a0.45 0.45 0 1 0 -0.9 0Z M29.05 36.5 a0.45 0.45 0 1 0 0.9 0 a0.45 0.45 0 1 0 -0.9 0Z M30.05 36.5 a0.45 0.45 0 1 0 0.9 0 a0.45 0.45 0 1 0 -0.9 0Z M37.05 36.5 a0.45 0.45 0 1 0 0.9 0 a0.45 0.45 0 1 0 -0.9 0Z M40.05 36.5 a0.45 0.45 0 1 0 0.9 0 a0.45 0.45 0 1 0 -0.9 0Z M16.05 37.5 a0.45 0.45 0 1 0 0.9 0 a0.45 0.45 0 1 0 -0.9 0Z M17.05 37.5 a0.45 0.45 0 1 0 0.9 0 a0.45 0.45 0 1 0 -0.9 0Z M18.05 37.5 a0.45 0.45 0 1 0 0.9 0 a0.45 0.45 0 1 0 -0.9 0Z M19.05 37.5 a0.45 0.45 0 1 0 0.9 0 a0.45 0.45 0 1 0 -0.9 0Z M21.05 37.5 a0.45 0.45 0 1 0 0.9 0 a0.45 0.45 0 1 0 -0.9 0Z M23.05 37.5 a0.45 0.45 0 1 0 0.9 0 a0.45 0.45 0 1 0 -0.9 0Z M30.05 37.5 a0.45 0.45 0 1 0 0.9 0 a0.45 0.45 0 1 0 -0.9 0Z M32.05 37.5 a0.45 0.45 0 1 0 0.9 0 a0.45 0.45 0 1 0 -0.9 0Z M33.05 37.5 a0.45 0.45 0 1 0 0.9 0 a0.45 0.45 0 1 0 -0.9 0Z M35.05 37.5 a0.45 0.45 0 1 0 0.9 0 a0.45 0.45 0 1 0 -0.9 0Z
M36.05 37.5 a0.45 0.45 0 1 0 0.9 0 a0.45 0.45 0 1 0 -0.9 0Z M37.05 37.5 a0.45 0.45 0 1 0 0.9 0 a0.45 0.45 0 1 0 -0.9 0Z M38.05 37.5 a0.45 0.45 0 1 0 0.9 0 a0.45 0.45 0 1 0 -0.9 0Z M39.05 37.5 a0.45 0.45 0 1 0 0.9 0 a0.45 0.45 0 1 0 -0.9 0Z M40.05 37.5 a0.45 0.45 0 1 0 0.9 0 a0.45 0.45 0 1 0 -0.9 0Z M14.05 38.5 a0.45 0.45 0 1 0 0.9 0 a0.45 0.45 0 1 0 -0.9 0Z M15.05 38.5 a0.45 0.45 0 1 0 0.9 0 a0.45 0.45 0 1 0 -0.9 0Z M17.05 38.5 a0.45 0.45 0 1 0 0.9 0 a0.45 0.45 0 1 0 -0.9 0Z M20.05 38.5 a0.45 0.45 0 1 0 0.9 0 a0.45 0.45 0 1 0 -0.9 0Z M21.05 38.5 a0.45 0.45 0 1 0 0.9 0 a0.45 0.45 0 1 0 -0.9 0Z M22.05 38.5 a0.45 0.45 0 1 0 0.9 0 a0.45 0.45 0 1 0 -0.9 0Z M24.05 38.5 a0.45 0.45 0 1 0 0.9 0 a0.45 0.45 0 1 0 -0.9 0Z M25.05 38.5 a0.45 0.45 0 1 0 0.9 0 a0.45 0.45 0 1 0 -0.9 0Z M26.05 38.5 a0.45 0.45 0 1 0 0.9 0 a0.45 0.45 0 1 0 -0.9 0Z M28.05 38.5 a0.45 0.45 0 1 0 0.9 0 a0.45 0.45 0 1 0 -0.9 0Z M29.05 38.5 a0.45 0.45 0 1 0 0.9 0 a0.45 0.45 0 1 0 -0.9 0Z M31.05 38.5 a0.45 0.45 0 1 0 0.9 0 a0.45 0.45 0 1 0 -0.9 0Z M32.05 38.5 a0.45 0.45 0 1 0 0.9 0 a0.45 0.45 0 1 0 -0.9 0Z M33.05 38.5 a0.45 0.45 0 1 0 0.9 0 a0.45 0.45 0 1 0 -0.9 0Z M35.05 38.5 a0.45 0.45 0 1 0 0.9 0 a0.45 0.45 0 1 0 -0.9 0Z M36.05 38.5 a0.45 0.45 0 1 0 0.9 0 a0.45 0.45 0 1 0 -0.9 0Z M37.05 38.5 a0.45 0.45 0 1 0 0.9 0 a0.45 0.45 0 1 0 -0.9 0Z M40.05 38.5 a0.45 0.45 0 1 0 0.9 0 a0.45 0.45 0 1 0 -0.9 0Z M13.05 39.5 a0.45 0.45 0 1 0 0.9 0 a0.45 0.45 0 1 0 -0.9 0Z M15.05 39.5 a0.45 0.45 0 1 0 0.9 0 a0.45 0.45 0 1 0 -0.9 0Z M16.05 39.5 a0.45 0.45 0 1 0 0.9 0 a0.45 0.45 0 1 0 -0.9 0Z M17.05 39.5 a0.45 0.45 0 1 0 0.9 0 a0.45 0.45 0 1 0 -0.9 0Z M19.05 39.5 a0.45 0.45 0 1 0 0.9 0 a0.45 0.45 0 1 0 -0.9 0Z M20.05 39.5 a0.45 0.45 0 1 0 0.9 0 a0.45 0.45 0 1 0 -0.9 0Z M21.05 39.5 a0.45 0.45 0 1 0 0.9 0 a0.45 0.45 0 1 0 -0.9 0Z M23.05 39.5 a0.45 0.45 0 1 0 0.9 0 a0.45 0.45 0 1 0 -0.9 0Z M24.05 39.5 a0.45 0.45 0 1 0 0.9 0 a0.45 0.45 0 1 0 -0.9 0Z M25.05 39.5 a0.45 0.45 0 1 0 0.9 0 a0.45 0.45 0 1 0 -0.9 0Z M29.05 39.5 a0.45 0.45 0 1 0 0.9 0 a0.45 0.45 0 1 0 -0.9 0Z M31.05 39.5 a0.45 0.45 0 1 0 0.9 0 a0.45 0.45 0 1 0 -0.9 0Z M32.05 39.5 a0.45 0.45 0 1 0 0.9 0 a0.45 0.45 0 1 0 -0.9 0Z M33.05 39.5 a0.45 0.45 0 1 0 0.9 0 a0.45 0.45 0 1 0 -0.9 0Z M35.05 39.5 a0.45 0.45 0 1 0 0.9 0 a0.45 0.45 0 1 0 -0.9 0Z M13.05 40.5 a0.45 0.45 0 1 0 0.9 0 a0.45 0.45 0 1 0 -0.9 0Z M14.05 40.5 a0.45 0.45 0 1 0 0.9 0 a0.45 0.45 0 1 0 -0.9 0Z M17.05 40.5 a0.45 0.45 0 1 0 0.9 0 a0.45 0.45 0 1 0 -0.9 0Z M18.05 40.5 a0.45 0.45 0 1 0 0.9 0 a0.45 0.45 0 1 0 -0.9 0Z M21.05 40.5 a0.45 0.45 0 1 0 0.9 0 a0.45 0.45 0 1 0 -0.9 0Z M22.05 40.5 a0.45 0.45 0 1 0 0.9 0 a0.45 0.45 0 1 0 -0.9 0Z M24.05 40.5 a0.45 0.45 0 1 0 0.9 0 a0.45 0.45 0 1 0 -0.9 0Z M25.05 40.5 a0.45 0.45 0 1 0 0.9 0 a0.45 0.45 0 1 0 -0.9 0Z M26.05 40.5 a0.45 0.45 0 1 0 0.9 0 a0.45 0.45 0 1 0 -0.9 0Z M28.05 40.5 a0.45 0.45 0 1 0 0.9 0 a0.45 0.45 0 1 0 -0.9 0Z M29.05 40.5 a0.45 0.45 0 1 0 0.9 0 a0.45 0.45 0 1 0 -0.9 0Z M31.05 40.5 a0.45 0.45 0 1 0 0.9 0 a0.45 0.45 0 1 0 -0.9 0Z M32.05 40.5 a0.45 0.45 0 1 0 0.9 0 a0.45 0.45 0 1 0 -0.9 0Z M34.05 40.5 a0.45 0.45 0 1 0 0.9 0 a0.45 0.45 0 1 0 -0.9 0Z M36.05 40.5 a0.45 0.45 0 1 0 0.9 0 a0.45 0.45 0 1 0 -0.9 0Z M39.05 40.5 a0.45 0.45 0 1 0 0.9 0 a0.45 0.45 0 1 0 -0.9 0Z M40.05 40.5 a0.45 0.45 0 1 0 0.9 0 a0.45 0.45 0 1 0 -0.9 0Z"/>
<path class="qr-finder-dark dark qrcode" d="M4 4 h1 v1 h-1Z M5 4 h1 v1 h-1Z M6 4 h1 v1 h-1Z M7 4 h1 v1 h-1Z M8 4 h1 v1 h-1Z M9 4 h1 v1 h-1Z M10 4 h1 v1 h-1Z M34 4 h1 v1 h-1Z M35 4 h1 v1 h-1Z M36 4 h1 v1 h-1Z M37 4 h1 v1 h-1Z M38 4 h1 v1 h-1Z M39 4 h1 v1 h-1Z M40 4 h1 v1 h-1Z M4 5 h1 v1 h-1Z M10 5 h1 v1 h-1Z M34 5 h1 v1 h-1Z M40 5 h1 v1 h-1Z M4 6 h1 v1 h-1Z M10 6 h1 v1 h-1Z M34 6 h1 v1 h-1Z M40 6 h1 v1 h-1Z M4 7 h1 v1 h-1Z M10 7 h1 v1 h-1Z M34 7 h1 v1 h-1Z M40 7 h1 v1 h-1Z M4 8 h1 v1 h-1Z M10 8 h1 v1 h-1Z M34 8 h1 v1 h-1Z M40 8 h1 v1 h-1Z M4 9 h1 v1 h-1Z M10 9 h1 v1 h-1Z M34 9 h1 v1 h-1Z M40 9 h1 v1 h-1Z M4 10 h1 v1 h-1Z M5 10 h1 v1 h-1Z M6 10 h1 v1 h-1Z M7 10 h1 v1 h-1Z M8 10 h1 v1 h-1Z M9 10 h1 v1 h-1Z M10 10 h1 v1 h-1Z M34 10 h1 v1 h-1Z M35 10 h1 v1 h-1Z M36 10 h1 v1 h-1Z M37 10 h1 v1 h-1Z M38 10 h1 v1 h-1Z M39 10 h1 v1 h-1Z M40 10 h1 v1 h-1Z M4 34 h1 v1 h-1Z M5 34 h1 v1 h-1Z M6 34 h1 v1 h-1Z M7 34 h1 v1 h-1Z M8 34 h1 v1 h-1Z M9 34 h1 v1 h-1Z M10 34 h1 v1 h-1Z M4 35 h1 v1 h-1Z M10 35 h1 v1 h-1Z M4 36 h1 v1 h-1Z M10 36 h1 v1 h-1Z M4 37 h1 v1 h-1Z M10 37 h1 v1 h-1Z M4 38 h1 v1 h-1Z M10 38 h1 v1 h-1Z M4 39 h1 v1 h-1Z M10 39 h1 v1 h-1Z M4 40 h1 v1 h-1Z M5 40 h1 v1 h-1Z M6 40 h1 v1 h-1Z M7 40 h1 v1 h-1Z M8 40 h1 v1 h-1Z M9 40 h1 v1 h-1Z M10 40 h1 v1 h-1Z"/>
<path class="qr-alignment-dark dark qrcode" d="M32 32 h1 v1 h-1Z M33 32 h1 v1 h-1Z M34 32 h1 v1 h-1Z M35 32 h1 v1 h-1Z M36 32 h1 v1 h-1Z M32 33 h1 v1 h-1Z M36 33 h1 v1 h-1Z M32 34 h1 v1 h-1Z M34 34 h1 v1 h-1Z M36 34 h1 v1 h-1Z M32 35 h1 v1 h-1Z M36 35 h1 v1 h-1Z M32 36 h1 v1 h-1Z M33 36 h1 v1 h-1Z M34 36 h1 v1 h-1Z M35 36 h1 v1 h-1Z M36 36 h1 v1 h-1Z"/>
<path class="qr-timing-dark dark qrcode" d="M12.05 10.5 a0.45 0.45 0 1 0 0.9 0 a0.45 0.45 0 1 0 -0.9 0Z M14.05 10.5 a0.45 0.45 0 1 0 0.9 0 a0.45 0.45 0 1 0 -0.9 0Z M16.05 10.5 a0.45 0.45 0 1 0 0.9 0 a0.45 0.45 0 1 0 -0.9 0Z M18.05 10.5 a0.45 0.45 0 1 0 0.9 0 a0.45 0.45 0 1 0 -0.9 0Z M20.05 10.5 a0.45 0.45 0 1 0 0.9 0 a0.45 0.45 0 1 0 -0.9 0Z M22.05 10.5 a0.45 0.45 0 1 0 0.9 0 a0.45 0.45 0 1 0 -0.9 0Z M24.05 10.5 a0.45 0.45 0 1 0 0.9 0 a0.45 0.45 0 1 0 -0.9 0Z M26.05 10.5 a0.45 0.45 0 1 0 0.9 0 a0.45 0.45 0 1 0 -0.9 0Z M28.05 10.5 a0.45 0.45 0 1 0 0.9 0 a0.45 0.45 0 1 0 -0.9 0Z M30.05 10.5 a0.45 0.45 0 1 0 0.9 0 a0.45 0.45 0 1 0 -0.9 0Z M32.05 10.5 a0.45 0.45 0 1 0 0.9 0 a0.45 0.45 0 1 0 -0.9 0Z M10.05 12.5 a0.45 0.45 0 1 0 0.9 0 a0.45 0.45 0 1 0 -0.9 0Z M10.05 14.5 a0.45 0.45 0 1 0 0.9 0 a0.45 0.45 0 1 0 -0.9 0Z M10.05 16.5 a0.45 0.45 0 1 0 0.9 0 a0.45 0.45 0 1 0 -0.9 0Z M10.05 18.5 a0.45 0.45 0 1 0 0.9 0 a0.45 0.45 0 1 0 -0.9 0Z M10.05 20.5 a0.45 0.45 0 1 0 0.9 0 a0.45 0.45 0 1 0 -0.9 0Z M10.05 22.5 a0.45 0.45 0 1 0 0.9 0 a0.45 0.45 0 1 0 -0.9 0Z M10.05 24.5 a0.45 0.45 0 1 0 0.9 0 a0.45 0.45 0 1 0 -0.9 0Z M10.05 26.5 a0.45 0.45 0 1 0 0.9 0 a0.45 0.45 0 1 0 -0.9 0Z M10.05 28.5 a0.45 0.45 0 1 0 0.9 0 a0.45 0.45 0 1 0 -0.9 0Z M10.05 30.5 a0.45 0.45 0 1 0 0.9 0 a0.45 0.45 0 1 0 -0.9 0Z M10.05 32.5 a0.45 0.45 0 1 0 0.9 0 a0.45 0.45 0 1 0 -0.9 0Z"/>
<path class="qr-format-dark dark qrcode" d="M12.05 4.5 a0.45 0.45 0 1 0 0.9 0 a0.45 0.45 0 1 0 -0.9 0Z M12.05 5.5 a0.45 0.45 0 1 0 0.9 0 a0.45 0.45 0 1 0 -0.9 0Z M12.05 7.5 a0.45 0.45 0 1 0 0.9 0 a0.45 0.45 0 1 0 -0.9 0Z M12.05 8.5 a0.45 0.45 0 1 0 0.9 0 a0.45 0.45 0 1 0 -0.9 0Z M12.05 9.5 a0.45 0.45 0 1 0 0.9 0 a0.45 0.45 0 1 0 -0.9 0Z M7.05 12.5 a0.45 0.45 0 1 0 0.9 0 a0.45 0.45 0 1 0 -0.9 0Z M35.05 12.5 a0.45 0.45 0 1 0 0.9 0 a0.45 0.45 0 1 0 -0.9 0Z M36.05 12.5 a0.45 0.45 0 1 0 0.9 0 a0.45 0.45 0 1 0 -0.9 0Z M37.05 12.5 a0.45 0.45 0 1 0 0.9 0 a0.45 0.45 0 1 0 -0.9 0Z M39.05 12.5 a0.45 0.45 0 1 0 0.9 0 a0.45 0.45 0 1 0 -0.9 0Z M40.05 12.5 a0.45 0.45 0 1 0 0.9 0 a0.45 0.45 0 1 0 -0.9 0Z M12.05 37.5 a0.45 0.45 0 1 0 0.9 0 a0.45 0.45 0 1 0 -0.9 0Z"/>
<path class="qr-finder-dot dark qrcode" d="M6 6 h1 v1 h-1Z M7 6 h1 v1 h-1Z M8 6 h1 v1 h-1Z M36 6 h1 v1 h-1Z M37 6 h1 v1 h-1Z M38 6 h1 v1 h-1Z M6 7 h1 v1 h-1Z M7 7 h1 v1 h-1Z M8 7 h1 v1 h-1Z M36 7 h1 v1 h-1Z M37 7 h1 v1 h-1Z M38 7 h1 v1 h-1Z M6 8 h1 v1 h-1Z M7 8 h1 v1 h-1Z M8 8 h1 v1 h-1Z M36 8 h1 v1 h-1Z M37 8 h1 v1 h-1Z M38 8 h1 v1 h-1Z M6 36 h1 v1 h-1Z M7 36 h1 v1 h-1Z M8 36 h1 v1 h-1Z M6 37 h1 v1 h-1Z M7 37 h1 v1 h-1Z M8 37 h1 v1 h-1Z M6 38 h1 v1 h-1Z M7 38 h1 v1 h-1Z M8 38 h1 v1 h-1Z"/>
<g transform="translate(16.875 16.875) scale(0.25)" class="logo">
	<svg role="img" viewBox="0 0 24 24" xmlns="http://www.w3.org/2000/svg"><title>GitHub</title><path d="M12 .297c-6.63 0-12 5.373-12 12 0 5.303 3.438 9.8 8.205 11.385.6.113.82-.258.82-.577 0-.285-.01-1.04-.015-2.04-3.338.724-4.042-1.61-4.042-1.61C4.422 18.07 3.633 17.7 3.633 17.7c-1.087-.744.084-.729.084-.729 1.205.084 1.838 1.236 1.838 1.236 1.07 1.835 2.809 1.305 3.495.998.108-.776.417-1.305.76-1.605-2.665-.3-5.466-1.332-5.466-5.93 0-1.31.465-2.38 1.235-3.22-.135-.303-.54-1.523.105-3.176 0 0 1.005-.322 3.3 1.23.96-.267 1.98-.399 3-.405 1.02.006 2.04.138 3 .405 2.28-1.552 3.285-1.23 3.285-1.23.645 1.653.24 2.873.12 3.176.765.84 1.23 1.91 1.23 3.22 0 4.61-2.805 5.625-5.475 5.92.42.36.81 1.096.81 2.22 0 1.606-.015 2.896-.015 3.286 0 .315.21.69.825.57C20.565 22.092 24 17.592 24 12.297c0-6.627-5.373-12-12-12"/></svg>
</g>
</svg>
